<?xml version="1.0" encoding="utf-8"?>
<!-- Generator: Adobe Illustrator 19.2.1, SVG Export Plug-In . SVG Version: 6.00 Build 0)  -->
<svg version="1.1" id="Layer_1" xmlns="http://www.w3.org/2000/svg" xmlns:xlink="http://www.w3.org/1999/xlink" x="0px" y="0px"
	 viewBox="0 0 522.6 214.1" style="enable-background:new 0 0 522.6 214.1;" xml:space="preserve" class="rb-logo">
<style type="text/css">
	.st0{fill:#FFFFFF;}
	.st1{fill:#31B675;}
</style>
<g>
	<g>
		<path class="st0" d="M15.9,147.4c0-3.4-2.1-4.3-5.1-4.3H6.5v34.1H0v-71h12.1c6.2,0,10,1.1,10,8.2v18c0,5.5-2.1,7.4-7.1,7.7v0.2
			c4.6,0.3,7.4,1.7,7.4,6.6v30.4h-6.5V147.4z M10.8,137.6c3,0,4.8-0.9,4.8-5.1v-15.9c0-4.1-2.2-4.8-5.5-4.8H6.5v25.9H10.8z"/>
		<path class="st0" d="M53.7,157.6H42.3l-2.7,19.7h-6.5l10.4-71h8.9l10.4,71h-6.5L53.7,157.6z M48.1,111.1h-0.2L43,152h10
			L48.1,111.1z"/>
		<path class="st0" d="M86.1,115.7c0-3-1.1-4.5-3.6-4.5c-2.6,0-3.6,1.5-3.6,4.5v52.1c0,3,1.1,4.5,3.6,4.5c2.6,0,3.6-1.5,3.6-4.5
			v-9.9h6.5V168c0,6-3.3,9.8-10.1,9.8c-6.8,0-10.1-3.8-10.1-9.8v-52.5c0-6,3.3-9.8,10.1-9.8c6.8,0,10.1,3.8,10.1,9.8v9.3h-6.5V115.7
			z"/>
		<path class="st0" d="M103.6,106.2h17.2v5.5h-10.7v25.9h10.2v5.5h-10.2v28.6h10.7v5.5h-17.2V106.2z"/>
	</g>
	<g>
		<g>
			<path class="st0" d="M269.9,106.2H282c6.2,0,10,1.1,10,8.2v18c0,5.5-2.1,7.5-7.1,7.7v0.2c4.5,0.2,7.4,1.7,7.4,6.6v22.2
				c0,7.1-3.8,8.2-10.3,8.2h-12.1V106.2z M280.7,137.6c3,0,4.8-0.9,4.8-5.1v-15.9c0-4.1-2.2-4.8-5.5-4.8h-3.6v25.9H280.7z
				 M280.3,171.7c3.3,0,5.5-0.7,5.5-4.8v-19.5c0-3.4-2.1-4.3-5.1-4.3h-4.3v28.6H280.3z"/>
			<path class="st0" d="M321.6,157.6h-11.4l-2.7,19.7H301l10.4-71h8.9l10.4,71h-6.5L321.6,157.6z M316,111.1h-0.2l-4.9,40.9h10
				L316,111.1z"/>
			<path class="st0" d="M357.1,147.4c0-3.4-2.1-4.3-5.1-4.3h-4.3v34.1h-6.5v-71h12.1c6.2,0,10,1.1,10,8.2v18c0,5.5-2.1,7.4-7.1,7.7
				v0.2c4.6,0.3,7.4,1.7,7.4,6.6v30.4h-6.5V147.4z M352,137.6c3,0,4.8-0.9,4.8-5.1v-15.9c0-4.1-2.2-4.8-5.5-4.8h-3.6v25.9H352z"/>
			<path class="st0" d="M377.9,106.2h17.2v5.5h-10.7v25.9h10.2v5.5h-10.2v28.6h10.7v5.5h-17.2V106.2z"/>
			<path class="st0" d="M405.3,106.2h17.2v5.5h-10.7v25.9H422v5.5h-10.2v34.1h-6.5V106.2z"/>
			<path class="st0" d="M432.7,117.6c0-7,2.7-12,11.4-12s11.4,5,11.4,12v48.2c0,7-2.7,12-11.4,12s-11.4-5-11.4-12V117.6z
				 M439.2,165.6c0,3.9,0.8,6.7,4.9,6.7s4.9-2.8,4.9-6.7v-47.8c0-3.9-0.8-6.7-4.9-6.7s-4.9,2.8-4.9,6.7V165.6z"/>
			<path class="st0" d="M467.6,117.6c0-7,2.7-12,11.4-12s11.4,5,11.4,12v48.2c0,7-2.7,12-11.4,12s-11.4-5-11.4-12V117.6z M474,165.6
				c0,3.9,0.8,6.7,4.9,6.7s4.9-2.8,4.9-6.7v-47.8c0-3.9-0.8-6.7-4.9-6.7s-4.9,2.8-4.9,6.7V165.6z"/>
			<path class="st0" d="M508.9,111.7h-7.3v-5.5h21v5.5h-7.3v65.5h-6.5V111.7z"/>
		</g>
	</g>
</g>
<g>
	<path class="st1" d="M243.4,126.7c0-0.1-0.1-0.2-0.1-0.3c-2,1.2-4,2.3-6.3,3.1c-6.7,2.1-14.1,1.6-20.3-1.7c3.8,3.7,7.6,7.3,11.3,11
		c-4.3,1.1-8.5,2.3-13,1.9c-6.1-0.6-11.5-3.8-15.4-8.5c2.6,5.7,5.3,11.5,7.9,17.2c-7.7-0.9-14.8-2.2-19.3-9.2
		c0.9,4.2,1.9,8.4,2.8,12.6c-4.6-1.4-9.3-2.6-12.2-6.8c0,3.1-0.1,6.3-0.1,9.4c-4.8-1.7-8.9-3.6-10.3-9.1c-0.3,4-0.3,6.9-0.1,10.6
		c-4.1-2-8.3-4.4-9.8-7.9c-7.5,9.6-17.9,30.1-24,35.9c-6.6,6.2-16,6.2-17.4,6.1c-2.9,0-4.3,2-6.2,2.5c-1.9,0.5-20-3.7-16.1,8.6
		c1.7,5.4,12.6,9.7,22.1,10.8c6.2,0.7,12.1-0.8,13.7-1.1c4.1-0.6,18.1,6.5,30.9-0.7c9.4-5.2,21.3-21.8,40.4-33.5
		c22-13.5,50.9-10,49.2-30C250.1,142,246.8,134.5,243.4,126.7z"/>
	<path class="st1" d="M194.2,78.2c7.9,0.4,31.9,2.1,50.1-3.1c19.1-5.5,32-17.4,38.7-35.9c-46.5,30.4-86.8,32.4-90.8,32.4
		C188.3,71.6,186.3,77.8,194.2,78.2z"/>
	<path class="st1" d="M197.9,82c-9.2-0.4-9.4,4.6-6.5,5.3c3,0.7,23.3,5.7,36,8.2c9.9,1.9,19.8,1.7,29.2-2.5c8.4-3.7,14-10,18.5-19.1
		C249.3,83,223.7,83.8,197.9,82z"/>
	<path class="st1" d="M196.7,91.9c-10.7-2.2-9.2,1.4-8.4,1.8c0.9,0.5,20.2,11.2,30.7,16.3c15.4,7.5,30.6,5.4,41.1-4.8
		c0.6-0.6,1.1-1.3,1.5-1.8c-10.8-0.9-21.5-1.1-31.8-2.9C218.6,98.3,207.7,94.6,196.7,91.9z"/>
	<path class="st1" d="M245.8,122.8c-9.4-4.1-22.3-7.1-31.6-11.8c-6.6-3.3-23.4-13.5-25.8-14.4c-2.1-0.4-2.2,1.4-1.3,2.1
		c9.1,8.2,17.8,17.1,27.6,24.5C223.4,130,237.9,128.5,245.8,122.8z"/>
	<path class="st1" d="M222.7,137.3c-7.7-7.5-15.9-15.3-23.9-23.2c-2.3-2.3-9.3-10.1-10.9-11.3c-0.9-0.8-2-0.4-1.3,1.1
		c4.3,8,8.1,16.4,13.1,24C205.7,136.8,214.1,139.5,222.7,137.3z"/>
	<path class="st1" d="M203.2,146.2c-5.3-11.5-15.2-32.6-16.4-35.4c-1.2-2.9-3-4.7-2.6-1.1c0.5,3.5,1.6,14.4,3.1,21.1
		C189.5,140.5,195,145.2,203.2,146.2z"/>
	<path class="st1" d="M187.5,148.8c-2.1-9.4-3.6-22.9-5.9-33.3C176.7,132.7,178.5,146.1,187.5,148.8z"/>
	<path class="st1" d="M166,152.6c0.8-8.7-0.4-17.5,4.9-27.4C158.5,137.8,159.2,147.2,166,152.6z"/>
	<path class="st1" d="M176.1,151.5c0.1-8.4,0.2-20.6,0.3-29.5C169,134,168.6,148.7,176.1,151.5z"/>
	<path class="st1" d="M173,122c4-4.1,7.9-11.7,10-18.6c2.7-8.6,3.2-16.1,1.8-24.4c-0.6-3.3-0.1-6.1,1.3-8.1c1.6-2.3,4.5-3.7,8.5-4.3
		c22.5-3.4,39.7-6.8,56.1-18.8c25.9-18.9,24-44.7,23.8-46.7c0-0.3-0.1-0.7-0.1-1c-13.9,21.3-31.3,37.9-61.5,49.3
		c-4.6,1.7-9.3,3.2-13.9,4.7c-2.2,0.7-4.4,1.4-6.6,2.1c-13.4,4.4-19,8.8-17.1,22.2c0,0.2,0.2,0.9,0.4,1.7c1.2,4.1,3.9,13.8,2.8,22.7
		C177.7,110.2,175.4,117.7,173,122z"/>
</g>
</svg>
