<?xml version="1.0" encoding="utf-8"?>
<!-- Generator: Adobe Illustrator 19.2.1, SVG Export Plug-In . SVG Version: 6.00 Build 0)  -->
<svg version="1.1" id="Layer_1" xmlns="http://www.w3.org/2000/svg" xmlns:xlink="http://www.w3.org/1999/xlink" x="0px" y="0px"
	 viewBox="0 0 415.8 99" style="enable-background:new 0 0 415.8 99;" xml:space="preserve">
<g>
	<polygon points="25.1,75.1 25,75.1 25,75.2 25.1,75.2 	"/>
	<path d="M25.3,75.9c0-0.2-0.1-0.4-0.1-0.7c-0.1,0-0.2,0-0.3,0c0,0.5,0.1,0.8,0.1,1.1c0,0.2,0.1,0.2,0.3,0.2
		C25.4,76.3,25.4,76.1,25.3,75.9z"/>
	<path d="M27.3,78.8c-0.1-0.1-0.2-0.1-0.2-0.1c0,0-0.1,0-0.2-0.1c-0.1,0.2-0.2,0.3-0.3,0.5c0.2,0.2,0.3,0.5,0.5,0.8
		c0.1,0.3,0.4,0.5,0.9,0.6c-0.1-0.2-0.2-0.5-0.3-0.9C27.6,79.2,27.5,78.9,27.3,78.8z"/>
	<path d="M28.4,80.9l0,0.1l0.1,0C28.5,81,28.4,81,28.4,80.9z"/>
	<polygon points="27.1,81 27.3,81 27.2,80.9 	"/>
	<polygon points="28.3,80.9 28.4,80.9 28.3,80.8 	"/>
	<path d="M33.1,84.9c-0.1-0.1-0.2-0.1-0.4-0.1C32.9,85,33,85,33.1,84.9z"/>
	<path d="M32.5,84.6c0.1,0.1,0.1,0.2,0.1,0.2l0-0.1L32.5,84.6z"/>
	<path d="M33.1,85.1c0,0-0.1,0-0.1-0.1L33.1,85.1l0.1,0.1C33.2,85.1,33.2,85.1,33.1,85.1z"/>
	<path d="M32.1,84.4c0,0.1,0,0.1,0.1,0.1C32.3,84.4,32.2,84.4,32.1,84.4z"/>
	<path d="M32.4,84.5l-0.1,0l0,0.1c0.1,0,0.2,0,0.3,0C32.4,84.6,32.4,84.6,32.4,84.5z"/>
	<polygon points="28.9,81.5 28.9,81.6 29,81.6 29,81.5 	"/>
	<path d="M29.5,82.1c0,0.4,0.3,0.7,0.8,0.9C30.3,82.5,30.1,82.2,29.5,82.1z"/>
	<path d="M25.7,78.2c-0.1-0.1-0.3-0.2-0.4-0.3C25.2,78.2,25.4,78.3,25.7,78.2z"/>
	<path d="M29,81.6c0,0.2,0.1,0.3,0.1,0.5C29.2,81.7,29.2,81.6,29,81.6z"/>
	<polygon points="29,82.9 29.2,83 29.2,82.9 	"/>
	<path d="M25.8,77.1c0.1,0.2,0.1,0.5,0.1,0.7c0,0.2,0.1,0.5,0.3,0.7c0.1-0.4,0-0.8-0.2-1.3C26,77.2,25.9,77.2,25.8,77.1z"/>
	<path d="M29.2,83c0,0.1,0,0.1,0.1,0.1C29.3,83,29.3,83,29.2,83z"/>
	<path d="M30.4,83.1c0.1,0.3,0.3,0.5,0.7,0.4C30.9,83.2,30.7,83,30.4,83.1z"/>
	<path d="M34.6,86.6c-0.2,0-0.4,0-0.5,0C34.2,86.9,34.4,86.9,34.6,86.6z"/>
	<path d="M28.6,81c0,0.3,0.1,0.5,0.1,0.5C28.7,81.1,28.7,81,28.6,81z"/>
	<path d="M31.2,83.6c0.1,0.2,0.2,0.3,0.3,0.5C31.5,83.8,31.4,83.6,31.2,83.6z"/>
	<polygon points="31.6,85.4 31.8,85.4 31.6,85.2 	"/>
	<path d="M25.4,76.7c0.2,0.3,0.3,0.5,0.4,0.5C25.8,76.8,25.7,76.7,25.4,76.7z"/>
	<path d="M45.4,83.4c-0.2-0.1-0.3-0.3-0.3-0.5c-0.1-0.2-0.2-0.4-0.3-0.5c-0.4-0.2-0.8-0.6-1.4-1.2c-0.1-0.4-0.2-0.6-0.2-0.7
		c0-0.1,0-0.2,0-0.2c0.1,0,0.2-0.1,0.4-0.2c0-0.5-0.3-1-0.8-1.3c-0.3-0.1-0.5-0.3-0.7-0.4c-0.2-0.1-0.4-0.3-0.5-0.4
		c-0.1-0.5-0.4-0.9-0.8-1.2c-0.4-0.5-0.6-0.8-0.7-1.1c-0.1-0.2-0.2-0.3-0.3-0.5c-0.1-0.2-0.2-0.3-0.3-0.5c-0.4-0.5-0.6-0.8-0.7-1
		c-0.1,0-0.2,0-0.3,0.1c-0.2-0.2-0.3-0.3-0.4-0.4c-0.1-0.1-0.2-0.2-0.4-0.4c0-0.5-0.1-0.8-0.4-1.2c-0.3-0.3-0.5-0.7-0.7-1
		c-0.1-0.2-0.1-0.4-0.1-0.7c0-0.1,0-0.1-0.1-0.1c-0.5-0.6-1-1.3-1.3-2c-0.4-0.7-0.6-1.5-0.7-2.3c0-0.1,0-0.1-0.1-0.2
		c0,0-0.1-0.1-0.1-0.2c-0.3-0.4-0.5-0.8-0.7-1.3c-0.2-0.5-0.5-0.9-0.7-1.3c0-0.1,0-0.1,0.1-0.2c0,0,0.1-0.1,0.1-0.2
		c-0.2-0.4-0.5-1-1.3-2c-0.2-0.3-0.8-0.7-1.1-1c-0.1-0.2-0.1-0.3-0.2-0.5c-0.3-0.3-0.8-0.6-1-1c-0.3-0.4-0.5-1.1-0.8-1.5
		c-1-1.4-1.8-2.6-1.9-3.1c-0.3-1.3,0.5-1.6,1.4-1.9c0.8-0.3,1.6-0.6,2.4-0.9c1.2-0.4,2.3-0.9,3.3-1.5c1.1-0.6,2.1-1.2,3.2-1.7
		c0.6-0.3,1.2-0.6,1.7-1c0.5-0.4,1-0.8,1.5-1.1c0.4-0.3,0.6-0.5,0.7-0.8c0.4-0.6,0.8-1.1,1.2-1.5c0.4-0.4,0.7-0.9,1.1-1.5
		c0.1-0.2,0.2-0.5,0.3-0.7c0.1-0.3,0.3-0.5,0.5-0.7c-0.4,0-0.1-3.5-0.2-3.7c0.2-0.2,0.3-0.4,0.5-0.6c0.2-0.3,0.4-0.6,0.5-0.8
		c0.1-0.3,0.2-0.6,0.4-0.9c0.2-0.6,0.3-1.2,0.1-1.8c-0.2-0.6-0.4-1.2-0.8-1.8c-0.2-0.3-0.4-0.6-0.6-0.9c-0.2-0.3-0.4-0.6-0.6-0.9
		c-0.3-0.6-0.6-1.1-0.9-1.6c-0.3-0.5-0.7-1-1.1-1.4c-0.6-0.6-1.3-1.1-1.9-1.7c-0.6-0.6-1.3-1.1-1.9-1.7c-0.6-0.5-1.3-0.9-1.9-1.3
		c-0.6-0.4-1.3-0.7-1.9-0.9c-0.3-0.1-0.7-0.3-0.9-0.4c-0.3-0.1-0.6-0.3-1.1-0.5c-1.1,0-2.1-0.2-3.2-0.5c-1.1-0.4-2.1-0.7-3.2-1
		c-0.8-0.3-1.7-0.5-2.5-0.6c-0.8-0.1-1.6-0.3-2.4-0.6c-3.5-0.5-6.9-1-10.4-1.5c-1.1,0.2-2.2,0.5-3.3,0.7c-0.4-0.1-0.9-0.1-1.3-0.2
		c-0.3,0-0.5,0-0.7,0c-0.2,0.1-0.5,0-0.8-0.1c-0.4-0.1-0.8-0.1-1.2-0.2c-0.1,0.2-0.2,0.5-0.2,0.8c0.1,0.5,0.2,0.9,0.2,1.3
		c0,0.4,0.1,0.8,0.2,1.3c0.1,0.5,0,0.9-0.2,1.3c-0.3,0.4-0.4,0.8-0.2,1.3c0.1,0.2,0,0.3-0.1,0.4c-0.1,0.1-0.2,0.2-0.2,0.3
		c0.1,0.4,0.2,0.8,0.1,1.2c0,0.3-0.1,0.7-0.1,1c-0.2,2-0.3,3.9-0.5,5.8c-0.2,1.9-0.4,3.8-0.6,5.7c0.2,0.7,0.4,1.3,0.5,1.9
		c0.1,0.6,0.1,1.1,0,1.7c-0.1,0.8-0.1,1.6-0.2,2.4c-0.1,0.8-0.1,1.5-0.2,2.3C1,44,1,44.4,1,44.8c0,0.4-0.1,0.8-0.2,1.2
		c-0.1,0.4-0.1,0.8-0.1,1.2c0.1,0.3,0.1,0.7,0.1,1.2c-0.1,0.2-0.1,0.3-0.1,0.4c0,0.1,0,0.2-0.1,0.3c-0.1,0.4-0.2,1.1-0.2,1.9
		c-0.1,0.4-0.2,1.1-0.2,1.9c0,0.9-0.1,1.9-0.1,2.8c0.3,0.7,0.6,1.3,0.7,1.7c0,0.9-0.1,1.7-0.1,2.6c-0.1,2.3-0.1,4.6-0.1,6.9
		c0,0.3,0.1,0.9,0.3,1.5c0.2,0.5,0.2,1,0.2,1.5c0,0.5-0.1,1-0.2,1.5c-0.3,1.4-0.3,2.5,0,3.5c0.2,0.5,0.3,1,0.5,1.5
		c0.1,0.5,0.2,1.1,0.1,1.7c-0.2,0.4-0.5,1.1-0.9,1.9c0.5,0.4,0.8,0.9,0.9,1.4c0.1,0.6,0.3,1.1,0.5,1.7L2,83.2
		c0.5,0.9,0.9,1.8,1.2,2.7c0.3,0.9,0.6,1.8,0.8,2.7c-0.3,0.2-0.6,0.4-0.8,0.6c0.1,0.2,0.1,0.3,0.2,0.4c0,0.1,0.1,0.3,0.3,0.4
		c0.8,0.7,1.5,1.7,2,2.9c0.6,0.9,1.3,1.6,2.1,2.3c0.5,0.4,1,0.7,1.5,0.8c0.5,0.2,1.1,0,1.8-0.5c0.1-0.1,0.3-0.1,0.7-0.2
		c0.1,0,0.2-0.1,0.3-0.1c0.4-0.4,0.7-0.8,0.7-0.9c0.2,0,0.4,0,0.7,0c0.1-0.4,0.1-0.8,0.1-1.1c0-0.3,0-0.6,0.2-0.9
		c0.1-0.5,0.2-1,0.3-1.5c0.1-0.5,0.2-1,0.4-1.5s0.4-1.1,0.5-1.6c0.1-0.6,0.3-1.1,0.5-1.6c0.2-0.3,0.3-0.6,0.4-0.9
		c0.1-0.3,0.3-0.6,0.4-0.9c0.4-1-1.7-6.2-1.3-7.3c0.4-1.1-1.2-4.8-0.8-5.9c-0.3-0.4-0.4-0.8-0.3-1.2c0-0.4,0.2-0.7,0.3-1.1
		c-0.2-0.5-0.3-0.8-0.4-1c0.2-0.5,0.3-0.8,0.3-1c0-0.2,0-0.5-0.1-0.7c0-0.2-0.1-0.4-0.2-0.7c0-0.1,0-0.1,0.1-0.2
		c0,0,0.1-0.1,0.1-0.3c0.2,0.2,0.3,0.3,0.5,0.5c0.1,0.3,9.5,12.2,9.7,12.2c0.2,0.2,0.3,0.3,0.3,0.4c0,0.1,0.2,0.2,0.3,0.2
		c-0.1-0.5-0.2-1-0.2-1.5c0-0.5,0-1.1,0-1.6c0-0.5,0-0.8,0.1-1.1c0.1,0.4,0.3,0.7,0.4,1.1c0.1,0,0.3,0.1,0.5,0.3
		c0.2,0.2,0.3,0.3,0.3,0.5c0,0.2,0.2,0.3,0.3,0.5c0.4,0.5,0.9,1.1,1.3,1.6c0.4,0.5,0.8,1,1.3,1.6c0.4,0.5,0.8,0.9,1.2,1.4
		c0,0.2,0,0.3,0.1,0.4c0,0.1,0.1,0.2,0.1,0.2c0.2,0.1,0.3,0.2,0.3,0.3c0,0.1,0.2,0.3,0.3,0.4c0,0.1,0,0.2,0,0.4
		c0.2,0.2,0.4,0.3,0.6,0.5c0.2,0.2,0.4,0.4,0.6,0.5c0.3,0.1,0.5,0.3,0.6,0.6c0.1,0.2,0.3,0.4,0.5,0.6c0.3,0.2,0.5,0.4,0.8,0.7
		c0,0.1,0,0.2,0,0.3c-0.2,0-0.3,0-0.5-0.2c-0.1-0.1-0.3-0.2-0.5-0.3c0,0.2,0,0.3,0,0.5c0.1,0.1,0.2,0.1,0.3,0.2
		c0.1,0,0.2,0.1,0.3,0.2c0.5,0.2,1.1,0.4,1.6,0.6c0.5,0.2,1.1,0.4,1.6,0.5c0.2,0.1,0.3,0.3,0.5,0.4c0.1,0.1,0.3,0.2,0.5,0.3
		c0.4,0,0.5,0.1,0.6,0.4c-0.2,0-0.4,0-0.5,0c-0.4-0.1-0.7-0.1-0.9-0.1c-0.1,0-0.1,0-0.1-0.1l0,0.1l0,0c0.1,0.1,0.2,0.1,0.2,0.2
		c0,0.1,0.2,0.2,0.4,0.3c0.1,0.1,0.3,0.2,0.4,0.3c0,0,0.1,0,0.1,0l0,0.1l0.1,0l-0.1-0.1c0.2,0,0.4,0,0.4,0.1
		c0.4,0.2,0.8,0.3,1.4,0.3c0.4,0.1,0.7,0.1,1,0.1c0.3,0,0.7,0,1.1-0.1c0.2,0,0.4,0,0.7,0c0.3,0.1,0.7,0.1,1.2,0
		c0.2-0.1,0.4-0.1,0.7-0.2c0.3,0,0.5-0.1,0.7-0.2c0.2-0.1,0.4-0.1,0.6-0.1c0.2,0,0.4-0.1,0.6-0.3c0.2,0,0.4-0.1,0.6-0.4
		c0-0.6-0.1-1.3-0.1-1.9c0.1-0.2,0.2-0.5,0.2-0.7c0.1-0.2,0.2-0.5,0.4-0.8c-0.5-0.3-0.8-0.6-1.1-0.9C46.4,83.7,46,83.5,45.4,83.4z
		 M15.3,42.5c-0.2,0.1-0.4,0.1-0.5,0.1c-0.2,0-0.4,0.1-0.5,0.1c-0.2-0.1-0.3-0.2-0.5-0.3c0.1-0.2,0.1-0.5,0.1-0.8
		c0-0.3-0.1-0.6-0.1-0.8c-0.1-0.3-0.1-0.6-0.1-0.9c0-0.3,0-0.6,0-1.1c-0.1-0.3-0.1-0.5-0.1-0.8c0-0.3,0-0.6,0-0.9
		c-0.1-0.7-0.1-1.3-0.1-1.8c-0.1-0.3-0.1-0.7,0-0.9c0-0.3,0-0.6-0.2-1c-0.1-0.3-0.1-0.7,0-0.9c0-0.3,0-0.6,0-0.9
		c-0.4-0.8-0.6-1.9-0.6-3.2c0.3-0.2,0.8-0.2,1.5,0c0.3,0,0.5,0.1,0.7,0.1c0.2,0.1,0.4,0.2,0.7,0.3c0.3,0.1,0.7,0.1,1.1,0.1
		c0.4-0.1,0.8,0,1.2,0.2c0.3,0.1,0.7,0.2,1,0.2c0.3,0,0.6,0,1,0c0.9,0.2,1.7,0.3,2.5,0.5c0.8,0.1,1.7,0.3,2.5,0.6
		c0.4,0.1,0.8,0.2,1.2,0.3c0.4,0.1,0.8,0.2,1.2,0.3c1.1,0.3,2.2,0.6,3.2,0.8c1,0.3,2,0.7,2.9,1.1c0.2,0.3,0.2,0.5-0.2,0.6
		c-0.1,0.1-0.2,0.2-0.3,0.3c-0.1,0-0.2,0.1-0.3,0.3c-0.9,0.4-1.8,0.8-2.6,1.2c-0.8,0.4-1.7,0.9-2.6,1.3
		C22.9,38.3,18.9,40.3,15.3,42.5z M27.5,74.2c-0.2-0.3-0.4-0.6-0.5-0.9c-0.2-0.3-0.4-0.6-0.5-0.9c-0.2-0.3-0.4-0.6-0.6-1
		c-0.2-0.3-0.4-0.7-0.5-1.1c0-0.2,0-0.3-0.1-0.4c0.1-0.3,0.1-0.6,0.1-1c0-0.3,0-0.6,0.1-1c0.2,0.4,0.3,0.8,0.4,1.2
		c0.1,0.4,0.2,0.8,0.4,1.2c-0.2,0.3-0.2,0.6,0.1,0.8c0.2,0.2,0.4,0.4,0.6,0.7c0.2,0.3,0.4,0.6,0.5,0.9c0.2,0.3,0.4,0.6,0.5,1
		c0.1,0.2,0.1,0.4,0.1,0.8C28,74.6,27.8,74.5,27.5,74.2z M30.6,79c0.2,0.1,0.4,0.2,0.5,0.3C30.8,79.4,30.6,79.3,30.6,79z M32.3,80.8
		c-0.3-0.2-0.5-0.4-0.5-0.6c0.2-0.2,0.4-0.1,0.8,0.1C32.5,80.6,32.4,80.7,32.3,80.8z M34.6,85.7l0.1,0.1
		C34.6,85.9,34.6,85.9,34.6,85.7z M34.2,82.8c-0.2-0.1-0.4-0.3-0.6-0.6c0.5,0,1,0.3,1.4,1C34.7,83.1,34.5,82.9,34.2,82.8z
		 M35.7,71.5c-0.5-0.4-0.8-0.8-0.7-1.3c0.3,0.1,0.4,0.2,0.5,0.3c0,0.2,0.2,0.3,0.3,0.5C35.8,71.1,35.8,71.3,35.7,71.5z M39.2,88.5
		c-0.2,0-0.3-0.1-0.3-0.2C39.1,88.2,39.2,88.3,39.2,88.5c0.2,0,0.4,0,0.7,0C39.6,88.7,39.4,88.7,39.2,88.5z M41.1,79.2
		c-0.1,0-0.3-0.1-0.5-0.2c-0.3-0.1-0.5-0.3-0.7-0.6c-0.2-0.1-0.3-0.3-0.3-0.3c0-0.1-0.2-0.1-0.3-0.2c-0.1-0.1-0.3-0.3-0.5-0.7
		c-0.1-0.5-0.3-0.8-0.5-1.1c-0.3-0.3-0.5-0.6-0.8-1c0-0.2,0-0.3-0.1-0.5c0-0.2,0-0.3,0.2-0.5c0.3,0.2,0.5,0.5,0.7,0.7
		c0.2,0.3,0.5,0.5,0.7,0.6c0,0.1,0,0.2,0,0.3c0.2,0.3,0.4,0.6,0.7,0.8c0.4,0.5,0.6,0.8,0.8,1.1c0.2,0.2,0.3,0.4,0.5,0.6
		c0.1,0.2,0.3,0.3,0.5,0.6c0.1,0.1,0.1,0.2,0.1,0.5C41.4,79.2,41.3,79.2,41.1,79.2z"/>
	<path d="M30.4,81.6l0-0.1c-0.1,0.1-0.1,0.2-0.1,0.2L30.4,81.6z"/>
	<path d="M33.5,85.3c-0.1,0-0.1,0-0.1-0.1C33.4,85.2,33.4,85.3,33.5,85.3z"/>
	<path d="M35.6,87.4c0.2,0.1,0.4,0.3,0.5,0.4c0.2,0.1,0.4,0.2,0.5,0.4c0.2,0,0.4,0,0.5,0c-0.3-0.3-0.8-0.6-1.5-0.9L35.6,87.4z"/>
	<path d="M37,88.9c-0.2-0.1-0.4-0.3-0.6-0.4C36.4,88.9,36.6,89,37,88.9z"/>
	<path d="M33.9,86.5l0,0.1l0.1,0C34,86.7,33.9,86.6,33.9,86.5z"/>
	<path d="M37.8,89.4c0.4,0.3,0.6,0.3,0.8,0.2c0-0.1-0.1-0.2-0.3-0.3C38,89.2,37.8,89.3,37.8,89.4z"/>
	<path d="M79.2,72.4l0,0.1l0.1,0C79.3,72.5,79.2,72.4,79.2,72.4z"/>
	<path d="M78.8,72.2c0-0.1,0-0.1-0.1-0.1l0,0.1L78.8,72.2z"/>
	<path d="M78.9,72.2c0.2,0,0.2,0.1,0.2,0.2l0-0.2L78.9,72.2z"/>
	<path d="M307.3,94.7c-0.1,0.1-0.2,0.1-0.2,0.1c0.1,0.1,0.1,0.1,0.2,0.1L307.3,94.7z"/>
	<path d="M322,32.5l-0.1,0l0,0.1C322,32.6,322,32.6,322,32.5z"/>
	<polygon points="309.9,98.4 309.9,98.3 309.7,98.4 	"/>
	<path d="M307.2,95l0.2,0.2C307.4,95.1,307.4,95.1,307.2,95z"/>
	<path d="M317.8,39.3l0-0.1l0-0.2c-0.1,0.1-0.1,0.1-0.1,0.2L317.8,39.3z"/>
	<path d="M329.4,75.5c0.1,0,0.1,0,0.1-0.1L329.4,75.5L329.4,75.5z"/>
	<path d="M359.4,79c0.1,0,0.1,0,0.1-0.1L359.4,79L359.4,79z"/>
	<path d="M402.1,66.6L402.1,66.6l0-0.2c-0.1,0-0.1,0-0.1,0.1L402.1,66.6z"/>
	<path d="M415.3,55.6c-0.1-0.1-0.3-0.1-0.7,0c0,0.6-0.1,1.1-0.4,1.6c-0.3,0.5-0.5,0.9-0.8,1.3c-0.2,0.2-0.4,0.7-0.8,1.3
		c-0.4,0.6-0.8,1.2-1.3,1.9c-0.4,0.7-0.9,1.3-1.3,1.9c-0.4,0.6-0.7,1-0.8,1.3c-0.6,1-1.3,2-1.9,3c-0.6,1-1.2,2-1.9,2.9
		c-0.2,0.2-0.3,0.4-0.4,0.6c-0.1,0.2-0.3,0.4-0.4,0.6l-1.4,1.9c-0.4,0.7-0.8,1.3-1.3,1.9c-0.4,0.6-0.9,1.2-1.4,1.9
		c-0.2-0.3-0.2-0.5-0.2-0.7c-0.1-0.1-0.1-0.3,0-0.5l0.3-2.7c0-0.4,0.1-0.8,0.1-1.1c0-0.4,0.1-0.7,0.3-1c0.1-0.1,0.1-0.4,0-0.7
		c0-0.3,0-0.7,0-1.2c0-0.3,0.1-0.7,0.2-1c0.1-0.4,0.2-0.7,0.3-1c0.2-0.5,0.3-1,0.3-1.5c0-0.5,0.1-1,0.4-1.5l0-0.2c0-0.3,0-0.5,0-0.7
		c0.1-0.2,0.1-0.5,0.1-0.7c0-0.3,0.1-0.7,0.1-1.1s0-0.8-0.1-1.2c0.2-0.2,0.2-0.5,0.1-0.7c-0.1-0.2-0.1-0.4,0.1-0.6
		c0.2-0.2,0.2-0.5,0.2-0.7c0-0.2,0-0.5,0-0.7c0.2-0.6,0.3-1.1,0.3-1.7c0-0.6,0.1-1.1,0.2-1.7c0.1-0.5,0.1-1,0.2-1.4
		c0.1-0.4,0.2-0.9,0.2-1.4c0.2-0.2,0.2-0.5,0.2-0.8c0-0.3,0-0.5,0.1-0.8c0-0.3,0.1-0.8,0.2-1.7c0.1-0.9,0.2-1.8,0.3-2.8
		c0.1-1,0.2-1.9,0.3-2.8s0.2-1.4,0.3-1.7c0-0.3-0.7,1.2-0.7,1c0-0.3,0-0.5,0.1-0.7c0.2-0.4,0.3-0.9,0.5-1.7c0.2-0.8,0.3-1.4,0.4-1.8
		c0.1-0.1,0.3-0.2,0.3-0.2c0.1,0,0.1-0.1,0.2-0.1c-0.1-0.1-0.1-0.1-0.2-0.2c-0.1,0-0.1-0.1-0.2-0.2c0-0.1,0-0.1,0.1-0.1
		c0,0,0.1-0.1,0.1-0.1c0.3,0,0.6,0,0.9,0c0.3,0,0.6,0,0.9-0.1c0.5-0.1,0.9-0.2,1.3-0.3c0.4-0.1,0.8-0.3,1.1-0.5
		c0.3-0.1,0.5-0.2,0.8-0.3c0.3-0.1,0.6-0.2,0.9-0.4c0.1-0.1,0.3-0.2,0.5-0.3c0.2-0.1,0.3-0.3,0.5-0.6c-0.3-0.2-0.6-0.3-0.9-0.2
		c-0.3,0-0.5,0-0.8,0.1c-0.7,0.1-1.3,0.2-2,0.2c-0.7,0-1.4,0.1-2.1,0.1c-0.1,0-0.2,0-0.3,0.1c-0.1,0.1-0.2,0.1-0.3-0.1
		c0.2-0.4,0.3-0.8,0.4-1.2c0.1-0.4,0.3-0.7,0.5-0.9c0-0.4,0-0.7,0-1c0-0.3,0.1-0.6,0.1-0.9c-0.1-0.2-0.2-0.5-0.3-0.7
		c-0.1,0-0.3,0.1-0.4,0.2c-0.1,0.1-0.2,0.1-0.4,0.2c-0.1-0.4-0.2-0.7-0.3-1c-0.2-0.3-0.5-0.6-0.7-0.9c-0.2-0.3-0.4-0.6-0.6-0.9
		c-0.2-0.1-0.3-0.2-0.5-0.2c-0.1,0-0.3-0.1-0.4-0.2c0-0.2,0-0.4,0-0.5c-0.2-0.3-0.4-0.5-0.6-0.7l-0.2,0c-0.3-0.1-0.6-0.3-0.8-0.5
		c-0.2-0.2-0.5-0.4-0.8-0.5c-0.1-0.1-0.2-0.2-0.2-0.2c0-0.1-0.1-0.1-0.1-0.2c-0.1,0-0.2-0.1-0.3-0.1c-0.1,0-0.3,0.1-0.4,0
		c-0.2,0-0.3,0-0.4,0c-0.2-0.1-0.4-0.2-0.5-0.3c-0.2-0.1-0.3-0.2-0.5-0.3c-0.6-0.3-1.2-0.5-1.6-0.4c-0.1,0-0.2,0-0.3,0.1
		c0,0.3,0,0.6,0,0.8c-0.1,0.1-0.1,0.3-0.2,0.5s-0.1,0.4-0.2,0.6c-0.1,0.1-0.3,0.2-0.4,0.2c-0.1,0-0.2,0.1-0.4,0.2
		c0.1,0.1,0.2,0.3,0.2,0.3c0,0.1,0.1,0.1,0.1,0.2l-0.1,1.3c0,0.1-0.1,0.2-0.2,0.3c0,0.3-0.1,0.6-0.1,0.9c0,0.3-0.1,0.5-0.2,0.9
		c-0.2,0.2-0.2,0.5-0.2,0.8c0,0.3,0,0.6,0,0.8c0,0.3-0.1,0.6-0.2,0.9c-0.1,0.3-0.2,0.6-0.3,0.9c-0.2,0.3-0.3,0.6-0.3,0.8
		c-0.1,0.3-0.2,0.5-0.3,0.8c-0.5-0.1-1-0.1-1.5,0c-0.5,0-1,0-1.5,0c-0.7,0.1-1.2,0.1-1.6,0.2c-0.3,0-0.6,0.1-0.9,0.1
		c-0.3,0.1-0.6,0.1-0.9,0.2c-0.2,0.2-0.3,0.5-0.4,0.6c0.8,0.1,1.7,0.2,2.5,0.3c0.8,0.1,1.6,0.3,2.5,0.5c0.4-0.1,0.9-0.1,1.4,0.2
		l-0.1,0.5c0,0.1-0.1,0.2-0.1,0.3c-0.1,0.1-0.1,0.1,0,0.2c0.1,0.3,0.1,0.6,0,0.8c-0.1,0.2-0.2,0.4-0.3,0.7c-0.3,0.6-0.5,1.3-0.7,2.2
		c-0.1,0.1-0.1,0.2-0.1,0.4c0.1-0.4,0.4-1,0.4-0.9c0,0.2-0.1,0.5-0.2,0.7l-0.1,1.1c-0.1,0.2-0.1,0.4-0.1,0.6c0,0.2-0.1,0.4-0.2,0.6
		c0,0.2-0.1,0.6-0.1,1.1c-0.1,0.5-0.2,1.1-0.3,1.8c-0.1,0.6-0.2,1.3-0.3,1.8c-0.1,0.6-0.2,0.9-0.2,1.1c-0.1,0.3-0.2,0.5-0.2,0.7
		c-0.1,0.1-0.2,0.1-0.3,0.2c-0.7,0.1-1.4,0.2-1.9,0.4c-0.5,0.2-1.2,0.3-1.8,0.5c-0.5,0.1-1.1,0.1-1.8,0.1c-0.6-0.1-1.2-0.1-1.7-0.2
		c-0.3-0.3-0.6-0.6-0.7-0.9c-0.1-0.3-0.3-0.7-0.4-1c-0.1-0.1-0.1-0.3-0.2-0.5c-0.1-0.2-0.1-0.4-0.3-0.5c-0.3-0.2-0.5-0.5-0.7-0.8
		c-0.1-0.3-0.2-0.6-0.2-1c-0.4-0.2-0.7-0.4-0.9-0.6c-0.2-0.3-0.4-0.5-0.6-0.7c-0.3-0.2-0.6-0.4-0.9-0.5c-0.3-0.1-0.6-0.2-0.9-0.4
		c-0.9-0.1-1.6-0.1-2.4,0.1c-0.7,0.2-1.4,0.4-2.2,0.5c-0.2,0.4-0.3,0.8-0.4,1.1c-0.1,0.4-0.3,0.7-0.4,1c-0.2,0.5-0.2,0.9-0.1,1.3
		c0.1,0.4,0.2,0.8,0.3,1.1c0.1,0.3,0.2,0.6,0.2,0.9c0,0.3,0.1,0.5,0.3,0.7c0.3,0.4,0.6,0.7,0.7,1c0.2,0.3,0.5,0.5,1.1,0.7
		c0.1,0.1,0.3,0.2,0.5,0.2c0.2,0.1,0.4,0.2,0.5,0.2c0.6,0.2,1.2,0.3,1.8,0.3c0.6,0,1.2,0.1,1.9,0.2c0.1,0,0.1,0,0.1,0.1
		c0,0,0.1,0.1,0.1,0.1c0,0.6-0.1,1.2-0.1,1.8c0,0.6-0.1,1.2-0.2,1.8c-0.2,0.3-0.3,0.7-0.5,1.1c-0.2,0.4-0.3,0.8-0.5,1.2
		c-0.3,0.7-0.5,1.5-0.7,2.3c-0.2,0.8-0.5,1.5-0.8,2.3c-0.1,0.5-0.3,1-0.5,1.4c-0.2,0.4-0.4,0.8-0.7,1.3l-1.4,2.9
		c-0.5,1.2-1.2,2.2-2,3.1c-0.8,0.9-1.8,1.6-3.1,2c-0.1,0.1-0.2,0.1-0.4,0.1c-0.8-0.6-1.4-1.3-1.8-2.1c-0.4-0.8-0.8-1.6-1.1-2.3
		c-0.1-0.2-0.1-0.4-0.1-0.6s0-0.4-0.2-0.6c-0.3-1.1-0.5-2.3-0.4-3.5c0.3-0.6,0.5-1.1,0.6-1.5c0-0.1,0-0.2,0-0.3c0-0.1,0-0.2,0-0.3
		c0.2-0.8,0.4-1.4,0.8-2c0-0.7,0.1-1.2,0.2-1.5c0.1-0.3,0.3-0.8,0.6-1.5c0.3-0.5,0.5-0.9,0.6-1.3c0-0.3,0.1-0.6,0.2-0.9
		c0.1-0.3,0.2-0.6,0.4-0.9c0.1-0.1,0.1-0.2,0.1-0.3c0-0.1,0-0.2,0.1-0.3c0-0.1,0-0.3,0.1-0.4c0.1-0.1,0.1-0.3,0.2-0.4
		c0.1-0.1,0.1-0.3,0.1-0.5c0-0.3,0-0.5-0.1-0.6c0.1-0.1,0.3-0.2,0.5-0.4c-0.1-0.3-0.1-0.5-0.1-0.7c0-0.2,0-0.4-0.1-0.5
		c-0.1-0.1-0.1-0.1-0.2-0.2c-0.1,0-0.1-0.1-0.2-0.2c-0.1-0.2,0-0.3,0.1-0.3c0.1,0,0.2-0.1,0.3-0.2l0-0.2c0.2-0.3,0.3-0.6,0.3-0.8
		c0.1-0.2,0.2-0.5,0.3-0.7c-0.1-0.2-0.1-0.4-0.1-0.7c-0.3-0.2-0.5-0.4-0.7-0.6c-0.2-0.2-0.4-0.4-0.8-0.5c-0.3-0.2-0.6-0.3-0.9-0.4
		c-0.3-0.1-0.6-0.2-0.9-0.4c-0.3-0.2-0.6-0.3-0.9-0.4c-0.3-0.1-0.6-0.2-0.9-0.2c-0.3,0.2-0.7,0.4-0.9,0.6c-0.1,0.1-0.3,0.2-0.4,0.3
		c-0.1,0-0.2,0-0.3,0.1c-0.1,0.1-0.3,0.2-0.4,0.1c-0.4,0.2-2.5,0.3-2.6,0.4c-0.7,0.1-1.4,0.2-1.9,0.4c-0.5,0.2-1.2,0.3-1.8,0.5
		c-0.5,0.1-1.1,0.1-1.8,0.1c-0.6-0.1-1.2-0.1-1.7-0.2c-0.3-0.3-0.6-0.6-0.7-0.9c-0.1-0.3-0.3-0.7-0.4-1c-0.1-0.1-0.1-0.3-0.2-0.5
		c-0.1-0.2-0.1-0.4-0.3-0.5c-0.3-0.2-0.5-0.5-0.7-0.8c-0.1-0.3-0.2-0.6-0.2-1c-0.4-0.2-0.7-0.4-0.9-0.6c-0.2-0.3-0.4-0.5-0.6-0.7
		c-0.3-0.2-0.6-0.4-0.9-0.5c-0.3-0.1-0.6-0.2-0.9-0.4c-0.9-0.1-1.6-0.1-2.4,0.1c-0.7,0.2-1.4,0.4-2.2,0.5c-0.2,0.4-0.3,0.8-0.4,1.1
		c-0.1,0.4-0.3,0.7-0.4,1c-0.2,0.5-0.2,0.9-0.1,1.3c0.1,0.4,0.2,0.8,0.3,1.1c0.1,0.3,0.2,0.6,0.2,0.9c0,0.3,0.1,0.5,0.3,0.7
		c0.3,0.4,0.6,0.7,0.7,1c0.2,0.3,0.5,0.5,1.1,0.7c0.1,0.1,0.3,0.2,0.5,0.2c0.2,0.1,0.4,0.2,0.5,0.2c0.6,0.2,1.2,0.3,1.8,0.3
		c0.6,0,1.2,0.1,1.9,0.2c0.1,0,0.1,0,0.1,0.1c0,0,0.1,0.1,0.1,0.1c0,0.6-0.1,1.2-0.1,1.8c0,0.6-0.1,1.2-0.2,1.8
		c-0.2,0.3-0.3,0.7-0.5,1.1c-0.2,0.4-0.3,0.8-0.5,1.2c-0.3,0.7-0.5,1.5-0.7,2.3c-0.2,0.8-0.5,1.5-0.8,2.3c-0.1,0.5-0.3,1-0.5,1.4
		s-0.4,0.8-0.7,1.3l-1.4,2.9c-0.5,1.2-1.2,2.2-2,3.1c-0.8,0.9-1.8,1.6-3.1,2c-0.1,0.1-0.2,0.1-0.4,0.1c-0.8-0.6-1.4-1.3-1.8-2.1
		c-0.4-0.8-0.8-1.6-1.1-2.3c-0.1-0.2-0.1-0.4-0.1-0.6c0-0.2,0-0.4-0.2-0.6c-0.3-1.1-0.5-2.3-0.4-3.5c0.3-0.6,0.5-1.1,0.6-1.5
		c0-0.1,0-0.2,0-0.3c0-0.1,0-0.2,0-0.3c0.2-0.8,0.4-1.4,0.8-2c0-0.7,0.1-1.2,0.2-1.5c0.1-0.3,0.3-0.8,0.6-1.5
		c0.3-0.5,0.5-0.9,0.6-1.3c0-0.3,0.1-0.6,0.2-0.9c0.1-0.3,0.2-0.6,0.4-0.9c0.1-0.1,0.1-0.2,0.1-0.3c0-0.1,0-0.2,0.1-0.3
		c0-0.1,0-0.3,0.1-0.4c0.1-0.1,0.1-0.3,0.2-0.4c0.1-0.1,0.1-0.3,0.1-0.5c0-0.3,0-0.5-0.1-0.6c0.1-0.1,0.3-0.2,0.5-0.4
		c-0.1-0.3-0.1-0.5-0.1-0.7c0-0.2,0-0.4-0.1-0.5c-0.1-0.1-0.1-0.1-0.2-0.2c-0.1,0-0.1-0.1-0.2-0.2c-0.1-0.2,0-0.3,0.1-0.3
		c0.1,0,0.2-0.1,0.3-0.2l0-0.2c0.2-0.3,0.3-0.6,0.3-0.8c0.1-0.2,0.2-0.5,0.3-0.7c-0.1-0.2-0.1-0.4-0.1-0.7c-0.3-0.2-0.5-0.4-0.7-0.6
		c-0.2-0.2-0.4-0.4-0.8-0.5c-0.3-0.2-0.6-0.3-0.9-0.4c-0.3-0.1-0.6-0.2-0.9-0.4c-0.3-0.2-0.6-0.3-0.9-0.4c-0.3-0.1-0.6-0.2-0.9-0.2
		c-0.3,0.2-0.7,0.4-0.9,0.6c-0.3,0.2-0.6,0.4-0.8,0.6c-0.1,0.1-0.3,0.5-0.6,1c-0.2,0.3-0.2,0.6-0.3,0.7c-0.1,0-0.1,0.1-0.2,0.1
		c-0.5,0.2-0.9,0.4-1.4,0.6c-0.8,0.3-1.5,0.6-2.3,0.9c-0.7,0.3-1.5,0.6-2.3,0.9c-0.2,0.1-0.6,0.2-1.1,0.4c-0.5,0.2-1.1,0.5-1.7,0.7
		c-0.6,0.2-1.2,0.5-1.7,0.6c-0.5,0.2-0.9,0.3-1.1,0.2l-1.7,0.5c-0.2,0.1-0.3,0.1-0.6,0.2c-0.2,0.1-0.5,0.1-0.8,0.3
		c0.3-0.4,0.7-0.8,1-1.2c0.3-0.4,0.6-0.8,0.9-1.3c0-0.1,0.1-0.2,0.3-0.3c0.4-0.5,0.6-1,0.7-1.5c0.5-0.3,0.7-0.5,0.7-0.6
		c0.3-0.7,0.6-1.3,0.9-1.7c0.1-0.1,0.1-0.2,0.2-0.4c0.2-0.4,0.3-0.7,0.4-0.9c0.5-1,0.9-1.9,1.2-2.6c0.3-0.7,0.6-1.6,0.9-2.6
		c0.2-0.6,0.4-1,0.6-1.2c0.2-0.4,0.3-0.7,0.3-0.8c0.2-0.6,0.4-1,0.6-1.3c0.3-0.3,0.5-0.9,0.6-1.6c0-0.2,0.1-0.6,0.3-1.2
		c0.2-0.4,0.3-0.7,0.4-1c0.1-0.3,0.1-0.7,0.1-1.1c0-0.1,0-0.1,0.1-0.2c0,0,0.1-0.1,0.1-0.2c0.2-0.6,0.4-1.1,0.5-1.6
		c0.2-0.5,0.3-1,0.5-1.6c0.3-0.7,0.4-1.5,0.3-2.4l0-0.4c0.2-0.4,0.3-0.8,0.2-1.2c0-0.5,0-0.9,0.1-1.3c0-0.4,0.1-0.7,0.1-1.1
		c0-0.3,0-0.7-0.1-1.1c-0.3-0.8-0.3-1.7-0.1-2.6c0-0.2,0-0.4-0.1-0.5c-0.1-0.2-0.1-0.4-0.2-0.6c-0.1-0.2-0.2-0.4-0.3-0.6
		c-0.2-0.4-0.4-0.6-0.6-0.6c-0.4-0.2-0.7-0.4-0.9-0.6c-0.2-0.2-0.5-0.5-0.9-0.6c-0.2,0.2-0.4,0.3-0.6,0.4l-3.1-0.3
		c-0.2,0.1-0.3,0.2-0.4,0.3c-0.1,0.1-0.3,0.1-0.4,0.2c-0.2,0.1-0.3,0.1-0.5,0.2c-0.2,0.1-0.4,0.1-0.5,0.2l-2.5,1.8
		c-0.5,0.6-0.8,1.2-0.9,1.6c-0.1,0.7-0.2,1.4-0.5,1.9c-0.3,0.5-0.6,1-0.9,1.5c-0.4,0.3-0.7,0.6-1,0.9c-0.3,0.3-0.6,0.6-0.9,0.9
		c-0.1,0.1-0.1,0.4-0.2,0.8c-0.3,0.6-0.6,1.2-0.8,1.8c-0.2,0.6-0.5,1.2-0.8,1.8c-0.1,0.1-0.1,0.3-0.1,0.4s-0.1,0.2-0.1,0.4
		c-0.2,0.5-0.4,1-0.5,1.4c-0.2,0.4-0.3,0.9-0.5,1.4c-0.4,1.1-0.8,2.2-1.2,3.3c-0.4,1.1-0.8,2.2-1.1,3.3c-0.1,0.4-0.2,0.7-0.3,1.1
		c-0.1,0.4-0.2,0.7-0.3,1.1c-0.2,0.6-0.4,1.1-0.6,1.7c-0.2,0.5-0.3,1.1-0.3,1.7l0,0.2c-0.2,0.6-0.4,1.2-0.5,1.9
		c-0.1,0.7-0.3,1.3-0.4,1.9c0,0.1-0.1,0.2-0.3,0.3l-0.9-0.1c-0.3,0.1-0.5,0.2-0.6,0.3c-0.7,0.2-1.3,0.5-1.9,0.8
		c-0.6,0.3-1.1,0.8-1.5,1.4l-0.7,0.6c-0.1,0.1-0.1,0.2-0.1,0.3c0.1,0.1,0.2,0.2,0.5,0.4c0.2,0.3,0.3,0.6,0.4,1
		c0.1,0.3,0.2,0.7,0.3,1.1c0.2,0.4,0.4,0.7,0.6,1c0.2,0.3,0.4,0.6,0.5,0.9c0.2,0.4,0.4,0.7,0.8,0.9c0.3,0.2,0.5,0.5,0.6,0.8
		c-0.5,0.5-0.9,1-1.4,1.5c-0.6,0.5-1.1,1.1-1.7,1.7c-0.8,0.8-1.8,1.6-2.7,2.2c-1,0.6-1.9,1.3-2.9,2c-0.6,0.4-1.4,0.8-2.3,1.2
		c-1.2,0.5-2.5,1-3.7,1.3c-1.3,0.3-2.5,0.7-3.8,1c-0.5-0.2-1-0.3-1.5-0.5c-0.1-0.1-0.1-0.2-0.1-0.3c0-0.1,0-0.1-0.1-0.2
		c-0.3-0.5-0.5-1.1-0.6-1.5c-0.1-0.5-0.3-0.9-0.5-1.4c-0.2-0.3-0.3-0.7-0.2-1.2c0-0.4,0-0.8-0.1-1.2c0.2-0.4,0.2-0.7,0.2-0.8
		c-0.1-0.3-0.2-0.5-0.3-0.6c0.1-0.9,0.2-1.7,0.5-2.2c0.3-0.6,0.4-1.3,0.4-2.1c0-0.7,0.1-1.1,0.3-1.4c0.7-0.1,1.3-0.1,2-0.1
		c0.6,0,1.3,0,1.9,0.1c0.2,0,0.4,0,0.6,0.1c0.2,0,0.4,0,0.5,0c0.3-0.1,0.7-0.1,1-0.1c0.3,0.1,0.7,0.1,1,0.1c0.4,0,0.8,0,1.2,0
		c0.4,0,0.8-0.1,1.2-0.2c0.8-0.2,1.6-0.7,2.4-1.4c0.2-0.4,0.3-0.8,0.6-1.2c0.2-0.4,0.4-0.9,0.7-1.3c0.3-0.5,0.5-0.9,0.5-1.3
		c0.2-1.2,0.3-2.4,0.2-3.7c0-0.3,0-0.6,0-0.9c0-0.3-0.1-0.6-0.1-0.9c-0.5-1-0.9-1.9-1.2-2.9c-0.6-0.4-1.3-0.7-1.9-0.9
		c-0.7-0.2-1.3-0.4-1.9-0.8c-1.1-0.1-2.2-0.1-3.3-0.2c-1.1-0.1-2.2-0.2-3.2-0.2c-0.1,0.1-0.3,0.2-0.5,0.2c-0.2,0-0.3,0.1-0.5,0.2
		l-0.1,0.1l-0.4,0c-0.6,0.1-1.2,0.2-1.8,0.3c-0.6,0.1-1.2,0.2-1.8,0.4c-0.7,0.1-1.3,0.3-1.7,0.6c-0.4,0.3-1,0.4-1.7,0.4
		c-0.1,0.3-0.2,0.5-0.2,0.7c-0.1,0.2-0.3,0.4-0.5,0.5c-0.1,0.1-0.2,0.3-0.4,0.6c-0.3,0.3-0.5,0.6-0.7,0.9c-0.2,0.3-0.5,0.6-0.7,0.8
		c-0.5,0.4-0.9,0.9-1.2,1.4c-0.3,0.5-0.7,1-1,1.5c-0.1,0.3-0.2,0.5-0.2,0.6c0,0.4-0.2,0.8-0.4,1.1c-0.3,0.3-0.3,0.7-0.1,1.2
		c-0.3,0.3-0.4,0.5-0.4,0.8c0,0.3-0.1,0.6-0.2,0.9c-0.1,0.3-0.3,0.5-0.4,0.7c-0.1,0.2-0.3,0.4-0.4,0.7c-0.3-0.1-0.5-0.2-0.5-0.2
		c0,0.3,0,0.5,0,0.7c0,0.2,0,0.4-0.1,0.6c-0.1,0.4-0.1,0.8-0.1,1.2c0,0.4,0,0.8,0,1.2c0,0.9,0,1.7,0.2,2.5c0.1,0.8,0.2,1.6,0.3,2.4
		c0.1,0.8,0.3,1.6,0.5,2.4c0.1,0.5,0.2,1,0.4,1.5c0.1,0.3,0.2,0.7,0.3,1c-0.1,0.2-0.2,0.4-0.3,0.6c-0.3,0.6-0.7,1.1-1,1.7
		c-0.1,0.3-0.3,0.5-0.4,0.7c-0.1,0.2-0.3,0.4-0.6,0.5c-0.1,0-0.3,0-0.5,0c-0.2,0-0.4,0-0.7-0.2l-0.6-1.2c0-0.1,0-0.1,0.1-0.1
		c0,0,0.1-0.1,0.1-0.2c-0.1-0.3-0.2-0.7-0.1-1c0-0.3,0-0.6,0-0.9c-0.1-0.1-0.1-0.3-0.2-0.4c-0.1-0.1-0.1-0.3-0.2-0.4
		c0-0.5,0-0.8-0.1-1l0-0.2c-0.6-0.9-0.9-1.8-0.9-2.7l0-0.1c-0.1-0.5-0.2-0.9-0.3-1.4c-0.1-0.5-0.2-0.9-0.3-1.3
		c-0.1-0.5-0.2-0.9-0.3-1.3c-0.1-0.4-0.1-0.8-0.2-1.3c-0.1-0.7-0.1-1.3-0.2-1.9c-0.1-0.6-0.2-1.2-0.3-1.9c-0.1-0.5-0.2-0.9-0.1-1.1
		c0.2-0.7,0.2-1.4-0.1-1.9c-0.1-0.3-0.1-0.6,0.1-0.9l0.3-1.5c0.1-1.3,0.3-2.6,0.7-4.1c0.1-0.3,0.2-0.6,0.3-0.9
		c0.1-0.3,0.2-0.5,0.4-0.8c0.1-0.2,0.3-0.4,0.4-0.5c0.1-0.2,0.3-0.3,0.4-0.5c0-0.1,0-0.1-0.1-0.2l-0.1,0c-0.1-0.4-0.2-0.7-0.3-0.9
		c-0.1-0.1-0.2-0.1-0.2-0.2c0,0-0.1-0.1-0.2-0.2c-0.1-0.1-0.2-0.3-0.2-0.4c0-0.1-0.1-0.3-0.2-0.4c-0.7-0.1-1.5-0.3-2.3-0.4
		c-0.8-0.1-1.6-0.1-2.4-0.1l-1.9,0c-0.3,0-0.7,0-1,0c-0.3,0-0.7,0.1-1,0.2c-0.3-0.1-0.5-0.2-0.7-0.3c0.3-0.3,0.6-0.6,0.9-0.9
		c0.2-0.3,0.5-0.6,0.7-0.9c0.6-0.9,1.1-1.8,1.5-2.8c0.1-0.1,0.1-0.3,0.2-0.4c0.1-0.1,0.1-0.3,0.1-0.4c0.1-0.5,0.2-0.9,0.3-1.3
		c0.1-0.4,0.1-0.9,0-1.4c-0.1-0.1-0.1-0.3-0.1-0.4c0-0.1-0.1-0.2-0.1-0.4c-0.1-0.1-0.2-0.2-0.3-0.3c-0.1-0.1-0.2-0.1-0.2-0.2
		c-0.1-0.1-0.3-0.1-0.4-0.1c-0.2,0-0.4,0-0.5-0.1c-0.2-0.1-0.3-0.1-0.4,0c-0.2,0.1-0.4,0-0.5-0.1c-0.1-0.1-0.3-0.2-0.5-0.2
		c-0.1,0.1-0.2,0.1-0.3,0c-0.1,0-0.1,0-0.2,0c-0.3,0.1-0.5,0.2-0.7,0.1c-0.2,0-0.4,0-0.5,0c-0.4,0.1-0.8,0.3-1.1,0.4
		c-0.3,0.1-0.6,0.3-0.9,0.4c-0.2,0.3-0.4,0.6-0.7,1c-0.3,0.3-0.5,0.6-0.8,0.9c-0.2,0.3-0.5,0.6-0.7,0.9c-0.2,0.3-0.4,0.7-0.5,1.4
		c-0.1,0.7-0.3,1.4-0.4,2.1c-0.1,0.7-0.2,1.4-0.2,2.1c0,0.1,0,0.2,0,0.3c-0.2,0.1-0.4,0.3-0.7,0.6c-0.9,0.7-1.5,1.5-1.9,2.7
		c-0.4,1.1-0.7,2.3-1,3.4c-0.3,1-0.5,1.9-0.7,2.9c-0.2,1-0.4,2-0.7,3c-0.1,0.3-0.1,0.5-0.1,0.8c0,0.3-0.1,0.5-0.1,0.8
		c-0.1,0.4-0.2,0.8-0.1,1.2c0,0.4,0,0.8,0,1.2c-0.1,0.7-0.2,1.5-0.3,2.2c-0.1,0.7-0.2,1.4-0.4,2.2c-0.1,0.3-0.2,0.5-0.2,0.7
		c0,0.3,0,0.6-0.1,0.9c-0.1,0.3-0.2,0.6-0.3,0.9l-0.2,1.2c-0.4,2-1,4-1.7,5.8c-0.1,0.1-0.2,0.3-0.2,0.4c0,0.1-0.1,0.3-0.2,0.4
		l-0.4,0.2c-0.1-0.3-0.1-0.7,0-1c0.1-0.3,0.1-0.7-0.1-1c-0.1-0.3-0.1-0.6-0.2-0.9c0-0.3,0-0.6-0.1-0.9c0-0.3-0.1-0.7-0.3-1
		c-0.2-0.3-0.2-0.7-0.3-1.1c0.2-0.6,0.1-1.3-0.2-2c-0.2-0.5-0.3-1.1-0.2-1.8c0.1-0.7,0.1-1.3,0-2c-0.1-0.6-0.2-1.3-0.3-1.9
		c-0.1-0.3-0.1-0.6-0.1-0.8c0.1-0.2,0.1-0.5,0.2-0.8c-0.4-0.5-0.5-1.1-0.4-1.9c0-0.3,0.1-0.7,0-1c0-0.3,0-0.6-0.1-0.9
		c-0.1-0.3-0.1-0.6-0.2-0.9c0-0.3,0-0.6-0.1-0.9c-0.1-0.5-0.1-1.1-0.1-1.6c0-0.5,0-1.1,0.1-1.6c0-0.7,0-1.3,0-2
		c0-0.6-0.1-1.3-0.2-1.9l0-0.6c0.2-0.6,0.2-1.3-0.1-2c-0.4-0.4-1-0.6-1.6-0.7c-0.8,0-1.6,0-2.3,0.2c-0.7,0.1-1.5,0.1-2.2,0
		c-0.3,0.2-0.6,0.3-0.8,0.4c-0.2,0.1-0.4,0.2-0.6,0.2c-0.3,0.2-0.4,0.3-0.5,0.6c-0.1,0.2-0.2,0.4-0.3,0.6c-0.2,0.4-0.6,0.8-0.9,1.1
		l0.1,0.9c-0.2,0.3-0.4,0.6-0.4,1c0,0.4-0.1,0.7-0.1,1.1c-0.1,0.5-0.2,0.9-0.2,1.1c-0.1,0.3-0.2,0.7-0.4,1c-0.1,0.3-0.3,0.6-0.6,1
		c-0.2,0.4-0.5,0.8-0.7,1.3c-0.2,0.4-0.5,0.8-0.8,1.2c-0.1,0.5-0.3,1-0.6,1.4c-0.3,0.4-0.6,0.9-0.9,1.4c-0.5,0.8-0.9,1.7-1.3,2.5
		c-0.4,0.8-0.8,1.7-1.1,2.6c-0.1,0.2-0.2,0.4-0.3,0.7c-0.1,0.2-0.2,0.5-0.3,0.7c-0.1,0.1-0.2,0.2-0.4,0.4c-0.1-0.4-0.2-0.9-0.1-1.3
		c0.1-0.4,0.2-0.9,0.3-1.4c0.1-0.5,0.2-0.9,0.4-1.4c0.2-0.4,0.3-0.9,0.4-1.5c0.4-1.4,0.8-2.7,1.2-4c0.4-1.3,0.8-2.6,1.3-4
		c0.1-0.1,0.2-0.3,0.3-0.4c0.1-0.1,0.1-0.3,0.3-0.4c0.1-0.1,0.2-0.4,0.3-0.8c0.1-0.1,0.2-0.3,0.2-0.5c0-0.2,0.1-0.4,0.2-0.5
		c0.3-0.6,0.6-1.1,0.8-1.7c0.2-0.6,0.5-1.2,0.8-1.7l1.1-1.9c0.3-0.5,0.6-0.9,0.8-1.3c0.2-0.4,0.5-0.8,0.8-1.2
		c0.3-0.2,0.5-0.4,0.7-0.7c0.2-0.2,0.4-0.4,0.6-0.6c0.4-0.2,0.8-0.2,1.1-0.1c0.3,0.1,0.7,0.1,1,0.1c0.4,0,0.8,0,1.1-0.1
		c0.4,0,0.7,0,1.2,0c0-0.3,0.2-0.4,0.5-0.5c0.3,0,0.4-0.2,0.5-0.6l-0.2-0.2c-0.3-0.1-0.6-0.2-0.9-0.3c-0.3-0.1-0.5-0.2-0.8-0.3
		c-0.7,0.1-1.3,0.1-1.9,0.1c-0.6-0.1-1.2,0-1.9,0.1c-0.7,0.1-1.3,0.2-1.9,0.2c-0.6,0-1.2,0.1-1.8,0.2l-0.9,0.7
		c-0.1,0.1-0.2,0.3-0.3,0.4c-0.1,0.1-0.2,0.3-0.3,0.4c-0.3,0.4-0.6,0.8-1,1.2c-0.4,0.4-0.7,0.8-1,1.3c-0.2,0.4-0.5,0.8-0.8,1.2
		c-0.3,0.4-0.6,0.8-0.9,1.1c-0.3,0.5-0.6,0.9-1,1.4c-0.3,0.4-0.6,0.9-0.9,1.4c-0.3,0.5-0.6,1-0.8,1.4c-0.2,0.4-0.4,0.9-0.6,1.5
		c-0.1,0.3-0.2,0.5-0.3,0.8c-0.1,0.2-0.2,0.5-0.3,0.7c-0.2,0.7-0.4,1.2-0.6,1.4c-0.1,0.3-0.2,0.5-0.2,0.8c-0.1,0.3-0.2,0.5-0.4,0.6
		c-0.3,0.2-0.4,0.4-0.4,0.7c0,0.2,0,0.5-0.2,0.8c-0.4,0.7-0.6,1.4-0.8,2.1c-0.2,0.7-0.4,1.4-0.7,2.1c-0.1,0.3-0.2,0.8-0.3,1.5
		c-0.1,1.7-0.3,3.2-0.6,4.6l-0.6,0.6c0.1,0.1,0.1,0.3,0.1,0.4c0,0.1,0,0.3,0.1,0.4l-0.5,0.5c0.2,0.8,0.4,1.6,0.6,2.3
		c0.2,0.8,0.4,1.6,0.7,2.4c0.3,0.2,0.6,0.6,1.1,1.1c1,0.5,1.9,0.7,3,0.8c1,0.1,2,0.1,2.9,0.2c0.3,0,0.6,0,0.9-0.1
		c0.3-0.1,0.6-0.2,1-0.3c0.5,0.1,0.9,0,1.3-0.2c0.3-0.1,0.7-0.2,1.4-0.4c0.3-0.1,0.4-0.3,0.6-0.4c0.1-0.2,0.2-0.4,0.4-0.6
		c0.1-0.2,0.2-0.4,0.4-0.6l1.1-1.6c0.2-0.3,0.4-0.6,0.6-0.8c0.2-0.2,0.4-0.5,0.5-0.8c0.3-0.2,0.6-0.5,0.7-0.8c0.1-0.3,0.3-0.6,0.5-1
		c0.2-0.4,0.5-0.8,0.6-1.1c0.3,0.5,0.5,0.9,0.6,1.2c0.1,0.1,0.1,0.4,0.1,0.7c0.1,0.3,0.1,0.6,0.1,0.9c0,0.3,0.1,0.6,0.2,0.9
		c0.2,0.4,0.3,0.8,0.4,1.2c0,0.4,0.1,0.8,0.2,1.2c0.1,0.4,0.2,0.8,0.3,1.2c0.1,0.4,0.2,0.8,0.3,1.2c0.1,0.3,0.1,0.5,0.1,0.8
		c0,0.3,0.1,0.6,0.2,0.9c0.3,1.1,0.7,2.1,1.2,3c0.9,1.3,2,1.8,3.3,1.7c0.3-0.1,0.7-0.1,1-0.2c0.3,0,0.7,0,1-0.1
		c0.5-0.1,1-0.2,1.4-0.3c0.4-0.1,0.8-0.3,1.2-0.6c0.3-0.2,0.5-0.4,0.7-0.7c0.2-0.2,0.4-0.4,0.6-0.6c0.3-0.4,0.6-0.8,0.7-1.1
		c0.2-0.3,0.4-0.6,0.6-1c0.1-0.1,0.1-0.3,0.2-0.4c0.1-0.1,0.1-0.2,0.2-0.4c0.2-0.7,0.5-1.4,1-2.1c0.2-0.5,0.4-1,0.5-1.3
		c0.2-0.7,0.4-1.4,0.5-2c0.1-0.7,0.3-1.4,0.6-2.1c0.2-0.6,0.4-1.2,0.5-1.8c0.1-0.6,0.1-1.2-0.1-1.8c0-0.1,0-0.1,0-0.2c0,0,0,0,0.1,0
		c0.1-0.3,0.2-0.6,0.3-0.8c0.1-0.2,0.1-0.4,0.2-0.6c0.1-0.3,0.2-0.5,0.2-0.7c0-0.2,0.1-0.4,0.2-0.6c-0.1-0.5-0.1-1,0-1.7
		c0.1-0.5,0.2-1,0.3-1.5c0.1-0.4,0.2-0.9,0.3-1.4c0.2-0.7,0.3-1.3,0.2-2c-0.1-0.2-0.1-0.4-0.1-0.6c0-0.2,0-0.5,0-0.7
		c0-0.3,0.1-0.5,0.1-0.8c0-0.3,0-0.6,0.1-0.9c0.2-0.5,0.3-1.1,0.3-1.7c0-0.9,0.2-1.9,0.4-2.8c0.1-0.5,0.2-1,0.4-1.5
		c0.1-0.2,0.1-0.3,0.2-0.5c0.2,0.1,0.4,0.2,0.6,0.4c0.5,0.3,1.1,0.6,1.6,0.9c0.5,0.3,0.9,0.5,1.1,0.6l0,0.5c-0.1,0.5-0.3,1-0.5,1.5
		c-0.2,0.5-0.4,1-0.6,1.5c-0.3,0.7-0.5,1.4-0.7,2.1c-0.2,0.7-0.3,1.4-0.3,2.1c0,0.4,0,0.7-0.1,0.9c-0.1,0.1-0.1,0.4-0.1,0.7
		c0.1,0.7,0.1,1.3,0,1.9c0,0.6,0,1.3,0.2,1.9c0,0.4,0,0.8,0.1,1.2c0.1,0.4,0.1,0.8,0.2,1.2c0.1,0.6,0.1,1.2,0.2,1.7
		c0.1,0.6,0.2,1.2,0.3,1.8c0.1,0.5,0.2,0.9,0.3,1.4c0.1,0.5,0.2,0.9,0.3,1.4c0.1,0.3,0.2,0.5,0.2,0.8c0,0.3,0.1,0.5,0.2,0.8
		c0.3,0.6,0.5,1.2,0.7,1.8c0.2,0.6,0.5,1.1,0.7,1.7c0,0.1,0,0.1,0,0.1c0,0,0,0,0,0.1c0.3,0.3,0.6,0.7,0.8,1.2
		c0.2,0.4,0.4,0.8,0.7,1.2c0.1,0.1,0.2,0.3,0.3,0.7c0.3,0.2,0.5,0.4,0.7,0.6c0.2,0.2,0.5,0.4,0.7,0.7c0.6,0.6,1.4,1.2,2.5,1.6
		c0.1,0.1,0.2,0.1,0.3,0.1c0.1,0,0.2,0,0.3,0.1c1.3,0.6,2.7,0.7,4.1,0.4c0.7-0.1,1.4-0.3,2.1-0.7c0.6-0.3,1.3-0.7,1.9-1.2
		c0.3-0.2,0.5-0.4,0.8-0.6c0.3-0.2,0.5-0.4,0.6-0.7c0.4-0.5,0.7-0.9,1-1.1c0.3-0.4,0.4-0.6,0.5-0.7c0.1-0.2,0.2-0.3,0.3-0.5
		c0.1,0.1,0.1,0.1,0.2,0.2c0.1,0.2,0.3,0.5,0.6,0.7c0.3,0.2,0.6,0.4,0.9,0.6c0.3,0.2,0.5,0.3,0.9,0.5c1.5,1.3,3.1,2.1,5,2.5
		c0.5,0.2,1,0.3,1.4,0.3c0.4,0.1,0.9,0.1,1.3,0.2c0.1,0,0.2,0,0.3,0.1c0.1,0,0.2,0.1,0.2,0.1c0.3,0,0.5,0,0.7,0c0.2,0,0.4,0,0.5,0
		c1.5,0.1,2.9,0,4.2-0.6c0.3-0.1,0.5-0.1,0.7-0.2c0.2-0.1,0.4-0.2,0.6-0.3c0.1,0,0.2,0,0.2-0.1c0.1,0.1,0.3,0.1,0.4,0.1
		c0.3-0.1,0.6-0.2,0.9-0.2c0.3-0.1,0.6-0.1,0.9-0.2l0.3-0.3c0.3-0.1,0.6-0.3,0.9-0.6c0.2-0.3,0.5-0.5,0.8-0.8c0.4-0.4,0.7-0.8,1-1.2
		c0.3-0.4,0.7-0.9,1.3-1.3l-0.1,0c0.8-0.6,1.5-1.2,2.2-1.8c0.7-0.6,1.4-1.2,2.1-1.8c0.2-0.2,0.4-0.4,0.5-0.6
		c0.1-0.2,0.2-0.4,0.4-0.6c0.2-0.3,0.3-0.6,0.4-0.8c0.1-0.2,0.3-0.4,0.4-0.7c0.2-0.2,0.4-0.5,0.6-0.7c0,0.2-0.1,0.5-0.1,0.8
		c-0.1,0.6-0.2,1.2-0.3,1.9c-0.1,0.7-0.1,1.3-0.2,1.9c-0.1,0.6-0.1,1.2-0.1,1.7c0,0.5-0.1,1,0,1.6c0,0.5,0,1,0,1.5
		c0,0.5,0,1-0.1,1.5l-0.1,1.2c0,0.1,0,0.1,0,0.1c0,0,0.1,0,0,0.1c0.3,0.2,0.5,0.3,0.5,0.5c0,0.1,0,0.1-0.1,0.1c0,0-0.1,0-0.1,0.1
		c0.2,0.3,0.2,0.7,0,1c0.1,0.4,0.2,0.8,0.2,1.2c0,0.4,0,0.9,0.1,1.4c0.1,0.3,0.2,0.5,0.4,0.7c0,0.3,0,0.7,0.1,1.1
		c0.2,1.1,0.2,1.9-0.1,2.6c0.2,0.8,0.4,1.4,0.6,1.9l0.2,0.2c-0.2,0.4-0.2,0.7,0,0.9c0.1,0.2,0.1,0.3,0.2,0.4
		c0.1,0.1,0.1,0.3,0.2,0.4c0,0.1,0,0.2-0.1,0.3c0,0-0.1,0.1-0.1,0.2c0.2,0.4,0.4,0.8,0.6,1.1c0.2,0.4,0.4,0.7,0.5,1.1l0.2,0.5
		c0,0.6,0,1,0.1,1.1c0,0.1,0.1,0.3,0.2,0.6l0,0.3c-0.1-0.1-0.4-0.1-0.7-0.2c0.1,0.2,0.3,0.5,0.6,0.8l0,0.2l0.1,0.1
		c0.2-0.1,0.4,0,0.5,0.3c0,0.4,0,0.7,0,0.9c0,0.1,0,0.3,0.1,0.5c0.1,0.2,0.1,0.3,0.1,0.5l0.2,0c0.1,0,0.2,0.1,0.3,0.3
		c0,0.1-0.1,0.2-0.3,0.3c0.3,0.4,0.6,0.7,0.9,1c0.4,0.3,0.7,0.6,1.1,0.8c0,0.1,0,0.3,0,0.4c0,0.1,0,0.2,0,0.3
		c0.1,0.1,0.3,0.1,0.4,0.2c0.1,0,0.3,0.1,0.4,0.2c0.1,0.1,0.1,0.1,0.1,0.2c0,0,0,0.1,0.1,0.2c0.1-0.1,0.2-0.1,0.3-0.1
		c0.1,0.1,0.2,0.2,0.3,0.2c0,0.1,0.1,0.2,0.3,0.2c0.7,0.1,1.1,0.1,1.4,0.1c0.3,0,0.9-0.2,1.9-0.5c0.4-0.3,0.8-0.5,1.2-0.7
		c0.4-0.2,0.7-0.5,1.1-0.9c0.3-0.3,0.6-0.5,0.8-0.8c0.2-0.2,0.5-0.5,0.8-0.8c0.3-0.2,0.5-0.4,0.7-0.7c0.1-0.3,0.3-0.6,0.5-1
		c0.2-0.2,0.3-0.4,0.3-0.7c0-0.3,0.1-0.5,0.3-0.8c0.1-0.2,0.2-0.5,0.2-0.7c0-0.3,0.1-0.5,0.2-0.8c0.1-0.4,0.2-0.8,0.2-1.2
		s0.1-0.8,0.3-1.2c0.1-0.4,0.2-0.7,0.3-1c0.1-0.3,0.2-0.6,0.3-0.9c0.1-0.4,0.2-0.7,0.2-1c0-0.3,0.1-0.7,0.2-1c0.1-0.4,0.2-0.7,0.1-1
		c0-0.3,0-0.6,0-1l0.1-1.4c0-0.1,0-0.3,0.1-0.4c0-0.1,0-0.2,0-0.4c-0.1-0.6-0.2-1.2-0.2-1.9c-0.1-0.7,0-1.4,0-2.1
		c0-0.3,0-0.5-0.1-0.7c0-0.3-0.1-0.6-0.1-0.9c-0.1-0.3-0.1-0.5,0-0.8c0.1-0.8,0-1.7-0.3-2.7l0.1-1.3c-0.1-0.3-0.2-0.6-0.3-0.9
		c-0.1-0.3-0.2-0.5-0.3-0.8c-0.1-0.8-0.2-1.6-0.5-2.5c-0.2-0.8-0.4-1.6-0.6-2.5c0-0.4-0.1-0.7-0.3-1c-0.2-0.3-0.3-0.6-0.4-0.8
		c-0.1-0.4-0.2-0.7-0.2-1c0-0.3-0.1-0.5-0.2-0.6c-0.2-0.4-0.3-0.8-0.4-1.1c-0.1-0.3-0.2-0.7-0.4-1.1c0.1-0.1,0.1-0.3,0-0.6
		c-0.1-0.3-0.2-0.6-0.4-1c-0.2-0.4-0.4-0.8-0.6-1.5l-0.2-0.2c0-0.1,0-0.1-0.1-0.1c0.6-0.2,1.3-0.3,2-0.5c0.7-0.2,1.2-0.3,1.6-0.4
		c0.3-0.1,0.8-0.3,1.5-0.5c0.7-0.2,1.4-0.5,2.1-0.8c0.7-0.3,1.4-0.5,2.1-0.8c0.7-0.2,1.1-0.4,1.5-0.5c0.8-0.3,1.6-0.7,2.4-1.1
		c-0.2,0.1-0.3,0.3-0.5,0.4c0,0.3-0.2,0.7-0.5,1.2c-0.3,0.5-0.5,0.7-0.6,0.9c-0.1,0-0.2,0-0.3-0.1c-0.1,0.2-0.3,0.4-0.5,0.6
		c-0.2,0.4-0.2,0.8-0.2,1.1c0,0.3-0.1,0.7-0.4,1c-0.1,0-0.2,0-0.3-0.1c-0.1,0.1-0.1,0.2-0.2,0.2c-0.1,0-0.1,0.1-0.2,0.1l-0.4,0
		c-0.1,0.1-0.1,0.1-0.1,0.2c0,0.5,0,1.1,0,1.6c0,0.5-0.1,1.1-0.4,1.6c-0.1,0.1-0.1,0.2-0.1,0.3c0,0.1,0,0.2,0,0.4
		c0.1,0.3,0.1,0.7,0,1c-0.1,0.3-0.2,0.6-0.2,0.8c0.2,0.7,0.2,1.5,0.2,2.2c0,0.7,0,1.5,0,2.2c-0.2,0.3-0.2,0.5-0.3,0.6
		c0,0.1,0,0.3,0,0.6c0.1,0.1,0.3,0.2,0.4,0.3c0.2,0.7,0.3,1.2,0.3,1.6c0,0.3,0,0.5,0.1,0.7c0.1,0.2,0.1,0.4,0.2,0.7
		c0.1,0.5,0.3,1,0.5,1.4c0.2,0.3,0.3,0.8,0.1,1.4l0.4,0c0-0.1,0-0.1,0.1-0.2c0.1,0.1,0,0.2-0.1,0.2c0,0.1,0,0.2,0.1,0.2
		c0.1,0,0.2,0.1,0.3,0.2c0.1,0.2,0.2,0.5,0.4,0.9c0.1,0.1,0.3,0.3,0.4,0.4c0.2,0.1,0.3,0.3,0.4,0.4c0.1,0.1,0.3,0.3,0.4,0.4
		c0.1,0.1,0.2,0.3,0.3,0.5l-0.2,0.2c0.1,0.1,0.1,0.3,0.2,0.4c0.1,0.1,0.2,0.2,0.2,0.4c0.1,0.4,0.5,0.8,1.1,1.1
		c0.5,0.2,0.9,0.4,1.4,0.6c0.5,0.2,0.9,0.4,1.4,0.6l0.4,0c0.7,0,1.5,0.1,2.2,0.1c0.7,0,1.5-0.1,2.2-0.2c0.1,0.1,0.2,0.1,0.3,0.1
		c0.4-0.1,0.7-0.2,0.9-0.2c0.9-0.1,1.8-0.3,2.5-0.7c0.8-0.4,1.5-0.8,2.3-1.3c0.2-0.1,0.6-0.4,1.1-0.7c0.1-0.1,0.2-0.1,0.3-0.2
		c0.1-0.1,0.2-0.2,0.3-0.3c0.6-0.8,1.3-1.5,2-2.1c0.2-0.2,0.5-0.5,0.7-0.9c0.4-0.6,0.9-1.3,1.3-1.9c0.4-0.6,0.8-1.3,1.1-2
		c-0.2-0.6-0.1-1.4,0.2-2.3c0.2-0.5,0.3-1,0.5-1.5c0.2-0.5,0.2-1,0.1-1.5c0-0.1,0-0.1,0.1-0.2c0-0.1,0.1-0.1,0.1-0.2
		c0.1-0.2,0.1-0.4,0.1-0.6c0-0.2,0.1-0.4,0.1-0.6c0.1-0.2,0.2-0.4,0.2-0.6c0.1-0.2,0.1-0.4,0-0.7c0.2-0.3,0.2-0.7,0.2-1
		c0-0.3,0-0.7,0.1-1c0.1-0.3,0.1-0.7,0.2-1c0-0.4,0-0.7,0.1-1c0-0.5,0-0.9,0.1-1.3c0.1-0.4,0.2-0.9,0.3-1.3c0.2-0.5,0.2-1,0-1.5
		c-0.1-0.1-0.1-0.2-0.1-0.3c0-0.1,0.1-0.2,0.2-0.3l0.1,0c0.7,0,1.5,0.1,2.2,0.1c0.7,0,1.4-0.1,2.1-0.3c0.3-0.1,0.5-0.2,0.4-0.2
		c0,0,0.1,0,0.2,0c0.6,0,1.1-0.2,1.6-0.6c0.5-0.3,1-0.7,1.6-1c0-0.1,0.3-0.1,0.7-0.2c0,0.1,0,0.2,0,0.2c-0.4,0.4-0.7,0.7-0.9,1.1
		c-0.3,0.4-0.5,0.7-0.7,1.1c-0.2,0.3-0.4,0.6-0.6,0.9c-0.2,0.3-0.5,0.6-0.8,0.8c0,0.3-0.2,0.7-0.5,1.2c-0.3,0.5-0.5,0.7-0.6,0.9
		c-0.1,0-0.2,0-0.3-0.1c-0.1,0.2-0.3,0.4-0.5,0.6c-0.2,0.4-0.2,0.8-0.2,1.1c0,0.3-0.1,0.7-0.4,1c-0.1,0-0.2,0-0.3-0.1
		c-0.1,0.1-0.1,0.2-0.2,0.2c-0.1,0-0.1,0.1-0.2,0.1l-0.4,0c-0.1,0.1-0.1,0.1-0.1,0.2c0,0.5,0,1.1,0,1.6c0,0.5-0.1,1.1-0.4,1.6
		c-0.1,0.1-0.1,0.2-0.1,0.3c0,0.1,0,0.2,0,0.4c0.1,0.3,0.1,0.7,0,1c-0.1,0.3-0.2,0.6-0.2,0.8c0.2,0.7,0.2,1.5,0.2,2.2
		c0,0.7,0,1.5,0,2.2c-0.2,0.3-0.2,0.5-0.3,0.6c0,0.1,0,0.3,0,0.6c0.1,0.1,0.3,0.2,0.4,0.3c0.2,0.7,0.3,1.2,0.3,1.6
		c0,0.3,0,0.5,0.1,0.7c0.1,0.2,0.1,0.4,0.2,0.7c0.1,0.5,0.3,1,0.5,1.4c0.2,0.3,0.3,0.8,0.1,1.4l0.4,0c0-0.1,0-0.1,0.1-0.2
		c0.1,0.1,0,0.2-0.1,0.2c0,0.1,0,0.2,0.1,0.2c0.1,0,0.2,0.1,0.3,0.2c0.1,0.2,0.2,0.5,0.4,0.9c0.1,0.1,0.3,0.3,0.4,0.4
		c0.2,0.1,0.3,0.3,0.4,0.4c0.1,0.1,0.3,0.3,0.4,0.4c0.1,0.1,0.2,0.3,0.3,0.5l-0.2,0.2c0.1,0.1,0.1,0.3,0.2,0.4
		c0.1,0.1,0.2,0.2,0.2,0.4c0.1,0.4,0.5,0.8,1.1,1.1c0.5,0.2,0.9,0.4,1.4,0.6c0.5,0.2,0.9,0.4,1.4,0.6l0.4,0c0.7,0,1.5,0.1,2.2,0.1
		c0.7,0,1.5-0.1,2.2-0.2c0.1,0.1,0.2,0.1,0.3,0.1c0.4-0.1,0.7-0.2,0.9-0.2c0.9-0.1,1.8-0.3,2.5-0.7c0.8-0.4,1.5-0.8,2.3-1.3
		c0.2-0.1,0.6-0.4,1.1-0.7c0.1-0.1,0.2-0.1,0.3-0.2c0.1-0.1,0.2-0.2,0.3-0.3c0.6-0.8,1.3-1.5,2-2.1c0.2-0.2,0.5-0.5,0.7-0.9
		c0.4-0.6,0.9-1.3,1.3-1.9c0.4-0.6,0.8-1.3,1.1-2c-0.2-0.6-0.1-1.4,0.2-2.3c0.2-0.5,0.3-1,0.5-1.5c0.2-0.5,0.2-1,0.1-1.5
		c0-0.1,0-0.1,0.1-0.2c0-0.1,0.1-0.1,0.1-0.2c0.1-0.2,0.1-0.4,0.1-0.6c0-0.2,0.1-0.4,0.1-0.6c0.1-0.2,0.2-0.4,0.2-0.6
		c0.1-0.2,0.1-0.4,0-0.7c0.2-0.3,0.2-0.7,0.2-1c0-0.3,0-0.7,0.1-1c0.1-0.3,0.1-0.7,0.2-1c0-0.4,0-0.7,0.1-1c0-0.5,0-0.9,0.1-1.3
		c0.1-0.4,0.2-0.9,0.3-1.3c0.2-0.5,0.2-1,0-1.5c-0.1-0.1-0.1-0.2-0.1-0.3c0-0.1,0.1-0.2,0.2-0.3l0.1,0c0.7,0,1.5,0.1,2.2,0.1
		c0.7,0,1.4-0.1,2.1-0.3c0.3-0.1,0.5-0.2,0.4-0.2c0,0,0.1,0,0.2,0c0.6,0,1.1-0.2,1.6-0.6c0.1-0.1,0.2-0.1,0.3-0.2
		c-0.2,0.5-0.3,1-0.5,1.5c-0.2,0.6-0.4,1.2-0.6,1.9c0,0.1,0.1,0.2,0.2,0.3c0.1,0,0.1,0.1,0.2,0.3c-0.1,0.1-0.2,0.2-0.2,0.4
		c-0.1,0.4-0.2,0.8-0.3,1.1c-0.1,0.4-0.2,0.8-0.2,1.2c0,0.4-0.1,0.8-0.1,1.2c0,0.4-0.1,0.8-0.3,1.2c-0.1,0.3-0.2,0.6-0.3,1
		c-0.1,0.3-0.1,0.6-0.2,1c0,0.3,0,0.5,0,0.8c0,0.3,0,0.5-0.1,0.7c-0.2,0.4-0.3,0.7-0.4,1.1c-0.1,0.4-0.1,0.7-0.2,1
		c-0.1,0.5-0.1,0.8-0.2,1c-0.2,0.4-0.3,0.8-0.3,1.2c0,0.4,0,0.9,0,1.3c0,0.5,0,1.1-0.1,1.7c0,0.6-0.2,1.2-0.4,1.7l-0.1,0.5
		c0.1,0.3,0.1,0.7,0,1c-0.1,0.3-0.1,0.7,0,1c0,0.1,0.1,0.4,0,0.8c-0.1,0.5-0.2,1-0.1,1.4c0,0.4,0.1,0.9,0.2,1.3
		c0.1,0.5,0.2,0.9,0.3,1.3c0.2,0.4,0.3,0.8,0.4,1.2c0.2,0.6,0.5,1.1,0.8,1.4c0.4,0.6,1,1.2,1.7,1.8c1.1,1,2.6,1.4,4.4,1.2
		c0.7-0.1,1.3-0.3,1.9-0.4c0.6-0.2,1.1-0.4,1.7-0.8c0.1-0.1,0.1-0.1,0.2-0.1c0.1,0,0.1-0.1,0.2-0.1c0.1,0,0.3,0,0.4,0
		c0.1,0,0.3,0,0.4,0c0.3-0.2,0.6-0.4,0.8-0.6c0.2-0.3,0.5-0.5,0.8-0.6c0.3-0.2,0.7-0.4,0.9-0.7c0.3-0.3,0.5-0.7,0.7-1.1
		c0.3-0.5,0.5-1,0.9-1.5c0.3-0.5,0.7-1,1.1-1.4c0.4-0.5,0.7-0.9,1-1.4c0.3-0.5,0.5-1,0.7-1.5c0.4-0.9,0.8-1.7,1.3-2.6
		c0.5-0.8,1-1.7,1.4-2.5c0.2-0.3,0.3-0.6,0.5-0.8c0.2-0.2,0.3-0.5,0.4-0.8c0.1-0.6,0.5-1.3,1-1.8c0.2-0.4,0.4-0.8,0.5-1.2
		c0.1-0.4,0.3-0.8,0.6-1.2c0.1-0.1,0.1-0.1,0.1-0.2c0-0.1,0-0.2,0.1-0.3c0.1-0.2,0.3-0.6,0.6-1.2c0.3-0.6,0.6-1.3,1-1.9
		c0.3-0.6,0.7-1.3,1-1.9c0.3-0.6,0.5-1,0.7-1.1c0.2-0.2,0.3-0.5,0.3-0.7c0.1-0.2,0.1-0.5,0.1-0.8l0.2-1.9
		C415.6,55.9,415.4,55.6,415.3,55.6z M285.3,48.1c0.3-0.5,0.5-1.1,0.7-1.6c0.2-0.6,0.4-1.1,0.7-1.6c0.3-0.3,0.5-0.7,0.7-1.1
		c0.2-0.4,0.4-0.8,0.7-1.3c0.5-0.4,1-0.8,1.5-1.2c0.5-0.4,1.2-0.7,2-0.8l0.9,0.3c0,0.1,0,0.1,0,0.2c0,0,0,0.1,0,0.3
		c0.1,0.7,0.1,1.3,0.1,1.8c-0.3,0.7-0.7,1.4-1.1,2.1c-0.4,0.7-1,1.3-1.7,1.8c-0.8,0.5-1.5,0.9-2.2,1.2c-0.7,0.3-1.5,0.5-2.3,0.6
		C285.1,48.7,285.1,48.4,285.3,48.1z M219.7,58.1c-0.1-0.1-0.2-0.2-0.1-0.2c0,0,0.1,0,0.2-0.1C219.8,58,219.8,58.1,219.7,58.1z
		 M253.4,34.2c-0.1-0.1-0.2-0.2-0.1-0.4c0.1-0.2,0.3-0.4,0.4-0.6c0.1-0.2,0.2-0.5,0.3-0.7c0.1-0.4,0.2-0.8,0.5-1.3
		c0.3-0.3,0.5-0.8,0.7-1.3c0.1-0.2,0.4-0.5,0.8-0.9c0.1,0.1,0.2,0.2,0.2,0.5c-0.1,0.6-0.3,1.1-0.6,1.6
		C254.8,32.2,254.1,33.3,253.4,34.2z M305.7,49.8c0,0.2-0.1,0.5-0.2,0.8c-0.1-0.4-0.3-0.7-0.5-0.8c-0.2-0.2-0.2-0.4,0-0.8
		c0.3-0.2,0.6-0.1,0.9,0.2C305.8,49.4,305.7,49.6,305.7,49.8z M311.2,70.5c-0.2-0.1-0.3-0.3-0.3-0.5c0-0.1,0.1-0.2,0.2-0.2
		c0,0.1,0,0.3,0.1,0.3C311.4,70.2,311.3,70.3,311.2,70.5z M311.1,69.7c-0.1-0.2-0.2-0.3-0.2-0.5c0-0.2-0.1-0.4-0.2-0.5
		c0-0.4,0.1-0.8,0.2-1.1c0.2,0.3,0.3,0.6,0.4,0.9c0,0.3,0.1,0.6,0.2,1C311.3,69.6,311.2,69.6,311.1,69.7z M320.8,36.5l-0.1,0l0-0.2
		l0.1-0.1c0,0.1,0,0.1,0,0.1c0,0,0.1,0,0,0.1L320.8,36.5z M321.5,34.9c0,0-0.1,0.1-0.1,0.2c-0.1,0.1-0.2,0.2-0.2,0.3
		c0,0-0.1,0.1-0.2,0.3c-0.1-0.2-0.1-0.3-0.1-0.5c0-0.2,0.2-0.3,0.6-0.5C321.6,34.7,321.6,34.8,321.5,34.9z M323.9,28.5
		c-0.1,0.1-0.1,0.3-0.2,0.5c-0.2-0.5-0.2-1,0-1.5c0.1,0.1,0.1,0.1,0.2,0.2c0.1,0,0.1,0.1,0.2,0.3C324,28.2,323.9,28.4,323.9,28.5z
		 M317.3,63.6c0,0.4,0.1,0.7,0.1,1c0,0.3,0,0.5,0.1,0.8c0,0.3,0.1,0.6,0.2,0.9c0.1,0.3,0.1,0.6,0.1,0.8c0,0.2,0,0.4,0.1,0.5
		c0.2,0.5,0.3,0.9,0.2,1.4c0,0.5,0,1,0.1,1.5c0.1,0.4,0.2,0.8,0.2,1.2c0,0.4,0.1,0.9,0.2,1.2c0.1,0.4,0.1,0.7,0.1,1
		c-0.1,0.3-0.1,0.6,0,1c0.1,0.5,0.1,1,0.1,1.5c0,0.5,0,1,0,1.5c0,0.5,0,1-0.1,1.5c-0.1,0.5-0.1,1-0.2,1.5c0,0.1,0,0.3-0.1,0.3
		c0,0.1-0.1,0.2-0.1,0.3c0,0.1,0,0.3,0,0.3c0,0.1,0,0.2,0,0.3l0,0.4c-0.1,0.1-0.1,0.3-0.2,0.5c0,0.2-0.1,0.3-0.2,0.5
		c-0.1,0.7-0.2,1.2-0.4,1.5c-0.1,0.4-0.2,0.7-0.1,1c0,0.3-0.1,0.6-0.3,1c-0.2,0.1-0.2,0.3-0.3,0.5c0,0.2-0.1,0.3-0.2,0.5
		c-0.1,0.4-0.2,0.7-0.4,1c-0.2,0.3-0.3,0.7-0.4,1c-0.2,0.5-0.5,0.9-0.9,1.2c-0.2-0.4-0.4-0.8-0.6-1.2c-0.2-0.4-0.4-0.8-0.6-1.2
		c-0.1-0.1-0.1-0.2-0.1-0.2c0-0.1,0-0.2-0.1-0.2c-0.1-0.6-0.2-1.1-0.4-1.6c-0.1-0.2-0.2-0.4-0.2-0.6c0-0.3-0.1-0.5-0.2-0.6
		c-0.1-0.2-0.1-0.3-0.1-0.5c0-0.1,0-0.3-0.1-0.5c0-0.1,0-0.1-0.1-0.2c-0.1,0-0.1-0.1-0.2-0.3c0.1-0.4,0.1-0.7,0-0.9
		c-0.1-0.2-0.3-0.5-0.4-0.8c0.1-0.8,0.1-1.6,0.1-2.4c0-0.8,0-1.6-0.1-2.4c0-0.3,0-0.6,0-0.8c0.1-0.2,0-0.5-0.1-0.8
		c-0.1-0.3-0.2-0.6-0.1-0.8c0.1-0.3,0.1-0.5,0-0.8c0.2-0.1,0.3-0.2,0.4-0.3c0.1-0.1,0.3-0.1,0.4-0.2c0.2-0.5,0.3-1,0.5-1.5
		c0.1-0.5,0.1-1,0-1.6c-0.1-0.4-0.1-0.8-0.1-1.2c0.1-0.4,0.2-0.9,0.3-1.3c0.1,0.2,0.2,0.3,0.3,0.5c0-0.1,0-0.1,0.1-0.1
		c0,0,0.1,0,0.1-0.1l0-0.6c-0.1-0.2-0.3-0.3-0.4-0.4c-0.1-0.1-0.2-0.2-0.4-0.4c-0.2,0.4-0.2,0.7-0.2,1.2c0.1,0.4,0,0.8-0.2,1.2
		l-0.4,0c0-0.2,0-0.4,0-0.6c0-0.2-0.1-0.4-0.1-0.6c0.1-0.1,0.1-0.1,0.2-0.2c0-0.1,0.1-0.1,0.3-0.2c0-0.2,0.1-0.4,0.1-0.6
		c0.1-0.2,0.1-0.4,0.2-0.6c0-0.3,0.1-0.6,0.1-0.8c0.1-0.2,0-0.5-0.1-0.8c-0.1-0.4-0.1-0.9-0.1-1.7c0.2-0.3,0.2-0.6,0.2-0.9
		c0-0.3,0-0.7,0.1-1.1c0.1-0.1,0.2-0.2,0.2-0.3c0-0.1,0.1-0.2,0.2-0.3l0.1-0.9c0-0.1,0-0.3-0.2-0.8c0.2-0.3,0.3-0.6,0.3-0.9
		c0.4,0,0.7-0.1,1-0.1c0.3-0.1,0.6-0.1,0.9-0.3c0.1,0.6,0.2,1.2,0.4,1.7c0.1,0.5,0.3,0.9,0.6,1.3c0.1,0.4,0.2,0.7,0.2,0.9
		c0,0.2,0.1,0.4,0.2,0.6L317.3,63.6z M317.2,43.7c-0.2,0.4-0.3,0.9-0.5,1.3c-0.2,0.3-0.3,0.6-0.5,0.8c-0.1,0.3-0.3,0.6-0.5,0.9
		c-0.1-0.7-0.1-1.1,0-1.2c0.2-0.3,0.3-0.6,0.3-0.8c0-0.3,0-0.5,0.1-0.8c0.1-0.2,0.1-0.5,0.1-0.7c0-0.3,0.1-0.5,0.2-0.7
		c0.1-0.1,0.1-0.2,0-0.3c0-0.3,0-0.6,0.1-0.8c0.1-0.3,0.2-0.5,0.3-0.8c0-0.2,0.1-0.6,0.3-1c0.3-0.9,0.7-1.7,1.2-2.5
		c0.1-0.6,0.2-1.2,0.4-1.9c0.2-0.7,0.4-1.3,0.6-1.9c0-0.1,0-0.1,0.1-0.2c0,0,0.1-0.1,0.1-0.3c0-0.5,0.1-1,0.3-1.4
		c0.2-0.4,0.4-0.9,0.6-1.4c0.2-0.4,0.3-0.7,0.4-1.1c0.1-0.4,0.2-0.7,0.4-1.1c0.2-0.4,0.3-0.7,0.4-1.1c0.1-0.4,0.2-0.7,0.3-1.1
		c0-0.1,0.1-0.3,0.3-0.8c0-0.1,0-0.2-0.1-0.2c0.4-0.8,0.7-1.7,1-2.8l0-0.3c0.3-0.4,0.6-0.8,0.7-1.3c0.1-0.4,0.3-0.9,0.6-1.3
		c0.3-0.4,0.5-0.7,0.7-1.1c0.2-0.4,0.4-0.8,0.6-1.2l0.2,0.5c0.1,0.5,0.1,0.9,0.1,1.4c0,0.5,0,0.9,0.1,1.3c-0.1,0.4-0.2,0.9-0.3,1.3
		c-0.1,0.4-0.2,0.8-0.4,1.3c-0.2,0.4-0.3,0.9-0.5,1.4c-0.1,0.5-0.3,1-0.5,1.5c0,0.4-0.1,0.7-0.3,1c-0.1,0.3-0.2,0.7-0.3,1
		c0,0.1-0.1,0.3-0.3,0.4l-0.1,0.1c-0.1,0.2-0.2,0.5-0.2,0.9c-0.2,0.3-0.2,0.5-0.2,0.7c0,0.1-0.1,0.3-0.3,0.3c-0.2,0.1-0.2,0.2,0,0.3
		c-0.1,0.1-0.2,0.3-0.2,0.4c0,0.1-0.1,0.2-0.2,0.4c-0.2,0.1-0.2,0.3-0.1,0.5c0.1,0.2,0.1,0.4-0.1,0.5c-0.2,0.1-0.2,0.3,0,0.4
		c0.1,0.2,0.2,0.3,0.2,0.5c-0.2,0.6-0.4,1.1-0.5,1.4l-0.2,0.1c0,0.1,0,0.1-0.1,0.1c0,0-0.1,0-0.1,0.1c-0.1-0.2,0-0.2,0.1-0.2
		c0-0.4,0-0.7,0-1c-0.4,0.8-0.8,1.5-1,2.3c-0.2,0.7-0.5,1.5-0.9,2.2c-0.1,0.1-0.1,0.3-0.1,0.4c0,0.1,0,0.3,0,0.6
		c0.2-0.3,0.3-0.5,0.3-0.6c0-0.1,0.1-0.2,0.3-0.4l-0.1,0.9c-0.2,0.1-0.3,0.2-0.5,0.3c0,0.1,0,0.3-0.1,0.4c-0.1,0.1-0.1,0.3-0.1,0.4
		c-0.2,0.1-0.4,0.2-0.7,0.5c0,0.1,0,0.3,0.2,0.5c-0.2,0.4-0.4,0.7-0.5,1c-0.2,0.3-0.4,0.7-0.6,1C317.5,42.9,317.3,43.3,317.2,43.7z
		 M348.9,48.1c-0.4-0.1-0.8-0.2-1.1-0.3c-0.4-0.1-0.7-0.2-1-0.3c-0.2-0.3-0.4-0.7-0.5-1c-0.1-0.3-0.3-0.5-0.6-0.7c0-0.3,0-0.5,0-0.7
		c0-0.2,0-0.4,0-0.6c0.2-0.6,0.5-1.1,0.7-1.5c0.4-0.2,0.9-0.3,1.6-0.1c0.5,0.2,0.8,0.5,1,1c0.2,0.4,0.5,0.9,0.7,1.3
		c0.2,0.4,0.4,0.8,0.5,1.3c0.1,0.4,0.2,0.9,0.4,1.5C350,48.3,349.5,48.3,348.9,48.1z M378.9,51.6c-0.4-0.1-0.8-0.2-1.1-0.3
		c-0.4-0.1-0.7-0.2-1-0.3c-0.2-0.3-0.4-0.7-0.5-1c-0.1-0.3-0.3-0.5-0.6-0.7c0-0.3,0-0.5,0-0.7c0-0.2,0-0.4,0-0.6
		c0.2-0.6,0.5-1.1,0.7-1.5c0.4-0.2,0.9-0.3,1.6-0.1c0.5,0.2,0.8,0.5,1,1c0.2,0.4,0.5,0.9,0.7,1.3c0.2,0.4,0.4,0.8,0.5,1.3
		c0.1,0.4,0.2,0.9,0.4,1.5C380,51.7,379.5,51.7,378.9,51.6z"/>
	<path d="M392.5,42.4c0-0.1,0-0.1,0-0.2C392.5,42.4,392.4,42.5,392.5,42.4z"/>
	<path d="M189.6,46.2c0,0,0.1,0.1,0.1,0.1l0,0C189.7,46.2,189.7,46.2,189.6,46.2L189.6,46.2z"/>
	<path d="M187.4,54.3c0-0.1,0.1-0.2,0.1-0.3c0,0-0.1,0-0.1,0c-0.1,0.1-0.1,0.2-0.1,0.3L187.4,54.3z"/>
	<path d="M190,57.8c0-0.1,0.1-0.2,0.1-0.3c-0.1,0-0.1,0-0.2,0c0,0.1,0,0.2,0,0.3L190,57.8z"/>
	<path d="M174.7,38.9c0.1,0.1,0.2,0.1,0.3,0.2C175.1,38.9,175,38.8,174.7,38.9z"/>
	<path d="M175.8,45.4c-0.1,0-0.2-0.1-0.3-0.1c0,0,0,0.1,0,0.1C175.6,45.4,175.7,45.4,175.8,45.4L175.8,45.4z"/>
	<path d="M188.5,75.3C188.6,75.3,188.6,75.3,188.5,75.3c0.1,0,0.1,0,0.1,0C188.6,75.2,188.6,75.2,188.5,75.3z"/>
	<path d="M175.9,46.8C175.9,46.8,175.9,46.8,175.9,46.8C175.9,46.8,175.9,46.8,175.9,46.8L175.9,46.8z"/>
	<path d="M176.2,47l0-0.1c-0.1,0-0.1,0-0.2-0.1C176,47,176.1,47,176.2,47z"/>
	<path d="M176.1,46.4c0.2-0.1,0.3-0.3,0.2-0.7c-0.1,0.2-0.1,0.3-0.1,0.3c-0.1-0.1-0.3-0.1-0.5-0.2C175.8,46.1,176,46.3,176.1,46.4z"
		/>
	<path d="M175.8,46.8c0-0.2-0.1-0.3-0.2-0.4c0,0.1,0,0.2-0.1,0.3C175.7,46.8,175.8,46.8,175.8,46.8z"/>
	<path d="M185.8,28.4c0,0-0.1-0.1-0.1-0.1l0,0C185.7,28.4,185.7,28.4,185.8,28.4L185.8,28.4z"/>
	<path d="M193.5,20.6c0,0.1-0.1,0.2-0.1,0.3C193.5,21,193.6,20.9,193.5,20.6z"/>
	<path d="M188.5,75.5C188.5,75.4,188.5,75.4,188.5,75.5c0-0.1,0-0.2,0-0.2C188.5,75.3,188.5,75.4,188.5,75.5z"/>
	<path d="M194.1,21.7c-0.1,0-0.1,0-0.2,0l0,0.1C194,21.7,194.1,21.7,194.1,21.7L194.1,21.7z"/>
	<path d="M175.6,45.5c-0.2,0.2-0.3,0.3-0.4,0.4c0.1,0.1,0.2,0.1,0.3,0.2C175.5,45.9,175.5,45.8,175.6,45.5z"/>
	<path d="M174.6,43.6c0,0.1,0,0.2-0.1,0.3c0.1-0.1,0.1-0.1,0.2-0.2C174.7,43.7,174.6,43.7,174.6,43.6z"/>
	<path d="M173.5,73.7c0,0-0.1,0.1-0.1,0.1c0,0,0,0,0,0C173.4,73.8,173.4,73.8,173.5,73.7L173.5,73.7z"/>
	<path d="M175.2,49c0,0-0.1-0.1-0.1-0.1l0,0C175,49,175.1,49,175.2,49L175.2,49z"/>
	<path d="M175,45.5c0,0,0,0.1-0.1,0.1c0,0,0,0,0,0.1C175,45.7,175,45.6,175,45.5z"/>
	<path d="M175,45.7C175,45.7,174.9,45.7,175,45.7C174.9,45.7,174.9,45.8,175,45.7C174.9,45.8,175,45.8,175,45.7z"/>
	<path d="M190.4,59.6c0.2,0.3,0.3,0.5,0.5,0.7C191,59.8,190.8,59.7,190.4,59.6z"/>
	<path d="M191.7,64.5c-0.1,0-0.2,0-0.3,0l0,0.1C191.4,64.5,191.5,64.6,191.7,64.5L191.7,64.5z"/>
	<path d="M191.4,62.7c0.1,0.1,0.1,0.3,0.2,0.5C191.9,62.8,191.6,62.7,191.4,62.7z"/>
	<path d="M191.5,64.2c0.1,0,0.2,0.1,0.3,0.1c0,0,0-0.1,0-0.1C191.8,64.1,191.7,64.1,191.5,64.2L191.5,64.2z"/>
	<path d="M190.9,69.7c0.2-0.3,0.3-0.4,0.5-0.6c-0.1-0.1-0.2-0.1-0.3-0.2C191,69.2,190.9,69.4,190.9,69.7z"/>
	<path d="M177.1,43.1c0,0-0.1,0.1-0.1,0.1l0,0.1C177.1,43.2,177.1,43.2,177.1,43.1L177.1,43.1c0.1,0,0.2,0,0.3,0
		c0,0.1,0.1,0.2,0.1,0.4c0.2-0.1,0.3-0.1,0.5-0.2c-0.2-0.2-0.4-0.4-0.7-0.6C177.2,42.9,177.2,43,177.1,43.1z"/>
	<path d="M191.5,68.4c0-0.1-0.1-0.2-0.1-0.4c-0.2,0.1-0.3,0.2-0.5,0.3C191.1,68.4,191.2,68.4,191.5,68.4z"/>
	<path d="M188.5,58.4c0,0.1,0.1,0.1,0.1,0.2c0.2-0.1,0.3-0.1,0.5-0.2c-0.1-0.1-0.2-0.2-0.3-0.3C188.8,58.2,188.6,58.3,188.5,58.4z"
		/>
	<path d="M189,57.2c0-0.2-0.1-0.2-0.1-0.3c-0.2,0.1-0.4,0.1-0.6,0.2c0,0,0,0.1,0,0.1C188.6,57.5,188.7,57.1,189,57.2z"/>
	<path d="M175.4,48.4L175.4,48.4c-0.1,0.1-0.1,0.2-0.1,0.3l0.1,0C175.4,48.7,175.4,48.6,175.4,48.4z"/>
	<path d="M180.1,32.4c0,0.1,0,0.3-0.1,0.4c0.1,0,0.3,0,0.4,0c-0.1-0.2-0.1-0.3-0.2-0.5C180.3,32.4,180.2,32.4,180.1,32.4z"/>
	<path d="M179,32.7c0,0.2-0.1,0.2-0.1,0.4c0.1,0,0.2,0,0.3,0C179.2,33,179.1,32.8,179,32.7L179,32.7z"/>
	<path d="M185.3,56.3c-0.1,0-0.3,0-0.5-0.1c0,0.1-0.1,0.2-0.1,0.3c0.2,0,0.4,0,0.5,0C185.3,56.5,185.3,56.4,185.3,56.3z"/>
	<path d="M178.5,33c0.1,0,0.2,0.1,0.2,0.1c0.1-0.1,0.2-0.2,0.3-0.3C178.6,32.6,178.5,32.7,178.5,33z"/>
	<path d="M183.6,66L183.6,66c0.1-0.1,0.1-0.2,0.1-0.3l-0.1,0C183.6,65.8,183.6,65.9,183.6,66z"/>
	<path d="M181.1,32.5L181.1,32.5c0.1,0,0.1-0.1,0.1-0.2l-0.1,0C181.1,32.4,181.1,32.5,181.1,32.5z"/>
	<path d="M183.7,30.3L183.7,30.3c-0.1,0.1-0.1,0.2-0.1,0.3l0.1,0C183.7,30.5,183.7,30.4,183.7,30.3z"/>
	<path d="M182.2,66.4c0.1,0,0.3,0.1,0.5,0.1c0-0.1,0-0.2,0.1-0.4c-0.2,0.1-0.2,0.2-0.3,0.2C182.4,66.3,182.3,66.3,182.2,66.4z"/>
	<path d="M182.9,67.2c0.2,0.1,0.4,0.2,0.4-0.2c-0.1,0-0.2,0-0.3,0C183,67.1,183,67.2,182.9,67.2z"/>
	<path d="M190.8,70c0.1,0,0.2,0.1,0.3,0.1c0,0,0-0.1,0-0.1C191,70,190.9,69.9,190.8,70L190.8,70z"/>
	<path d="M186.5,44.4c0-0.1,0-0.1-0.1-0.2l-0.1,0C186.4,44.3,186.4,44.3,186.5,44.4L186.5,44.4c0,0,0.1,0.1,0.1,0.1l0.1,0
		C186.6,44.4,186.6,44.4,186.5,44.4L186.5,44.4z"/>
	<path d="M186.3,63.8c0-0.2,0-0.2,0-0.3c-0.1,0.1-0.2,0.1-0.4,0.2C186.1,63.7,186.2,63.7,186.3,63.8z"/>
	<path d="M186.6,58.9c-0.1,0-0.2-0.1-0.3-0.1c0,0,0,0.1,0,0.1C186.4,59,186.5,59,186.6,58.9L186.6,58.9z"/>
	<path d="M193.5,42.5c-0.1-0.1-0.2-0.1-0.3-0.1C193.1,42.5,193.2,42.5,193.5,42.5z"/>
	<path d="M210.5,66c-0.4-1.5-0.9-3-1.3-4.4c-0.4-1.3-0.2,0.9-0.6-0.4c-1.2-1.4-2.1-2.9-2.7-4.4c-0.3-0.7-0.8-1.4-1.3-2
		c-0.8-0.8-1.4-0.2-2,0c-0.7-1.8-1.4-3.6-2.2-5.3c-0.4-0.8,0.2-1.4,0.8-1.4l3.4-2.3c0.2-0.1,3.6-3.4,0-3.8l0,0
		c0.2-0.5,2.6,1,2.7,0.5c0.2-0.9,0.4,0.6,0.9-0.1c0.4-0.5,1.1-1.9,1.5-2.4c0.4-0.5,2.3-0.5,2.6-1.1l0.1-0.2c0,0,0.2-0.2,0.2-0.2
		c0.1-0.3,0.3-0.5,0.6-0.8c0.6-0.8,1.1-1.7,1.7-2.6c0.5-0.8,1.7-5.3,2.5-7.3c0.6-0.7,1.3-1.5,1.4-1.7c0.3-0.5,0.6-1,1-1.6l0.1-0.1
		l0.1-0.1c1.8-2.1-1.5-8.2-1.2-11c0-0.3,0.1-0.5,0.3-0.9c-0.1-0.4-0.1-0.9-0.1-1.3c0-0.3,0-0.6,0-0.8c-0.5-0.5-1-1-1.5-1.4l-2.3-1.7
		c-0.7-0.4-1.4-0.7-2.2-0.8c-1-0.2-2-0.5-3.1-0.8l-0.1,0l-0.1,0c-0.6-0.3-1.1-0.4-1.7-0.4l0.6,0.8l-3,0.3c-0.2,0-0.3,0-0.5,0
		c-0.3,0-0.7,0-1.1,0c-0.3,0.2-0.7,0.3-1.1,0.4l-0.2,0l-0.5-0.1c-0.6,0.4-1.2,0.7-1.9,0.8c-0.4,0.1-0.8,0.3-1.2,0.5
		c-0.2,0.2-0.5,0.3-0.8,0.4c-0.3,0.2-0.6,0.3-1,0.4c-0.4,0-0.8-0.1-1.2-0.4c-0.6,0.6-1.3,0.6-1.9,0.9L194.2,9l-0.2,0
		c-0.7,0.2-1.3,0.5-1.9,0.8c-0.6,0.5-3.6-0.1-9,0.9c-2,0.4,1-3.9,0.1-6c-0.4-0.8-0.6-1.7-0.8-2.4c-0.2-0.6-0.3-1.3-0.3-2
		c-0.1,0-0.1-0.1-0.2-0.2c0,0,0,0,0,0c-0.2,0-0.4,0.1-0.6,0.1c-0.4,0-0.8-0.1-1.2-0.2c0,0,0,0-0.1,0c0,0,0,0,0,0
		c-0.4,0.1-0.8,0.2-1.2,0.2c-0.2,0-0.4,0-0.6,0l-0.1,0l-0.1,0c-0.5-0.2-1.1-0.2-1.6-0.2c-0.2,0-0.5,0-0.7,0.1
		c-0.8,0.2-1.6,0.5-2.3,0.8L173,1.1c0,0-0.5-0.1-0.6-0.1c-0.2,0.2-0.4,0.3-0.6,0.5c-0.2,0.1-0.4,0.3-0.6,0.5L171,4.7l0,0.1
		c0.1,2.4-0.3,4.7-0.7,6.9c-0.2,0.9-0.3,1.8-0.4,2.7c-0.1,0.6-0.1,1.2-0.2,1.7c-0.4,3.1-0.8,6.2-1.9,9.2c-0.1,0.4-0.1,0.8-0.2,1.1
		l-0.3,3c-0.1,0.9-0.1,1.8-0.1,2.6l0,0.1l0,0.1c-0.1,1.2-0.4,2.4-0.7,3.4l0.3,0.8c0.3,0.9,0.3,1.5,0.1,1.9c0,0.2-0.1,0.4-0.2,0.5
		c0,0.2-0.1,0.5-0.2,0.8l-0.1,0.5l-0.3,0.2c-0.1,0.3-0.3,0.6-0.6,0.8l-0.2,0.2l-0.2,0.1c-0.1,0.1-0.3,0.1-0.4,0.1
		c-0.1,0.4-0.1,0.7-0.2,1.1l0.9,0.3c0,0,0-0.2-0.1-0.5c0.2,0.4,0.3,1-0.1,1.8c-0.2,0.7-0.4,1.3-0.5,1.9c-0.1,0.7-0.3,1.5-0.5,2.4
		l-0.1,0.6l-0.1,0.1c-0.1,0.9-0.3,1.8-0.4,2.7l-0.4,3.8l-0.2,0.3c-0.4,0.7-0.6,1.3-0.6,2.1c-0.1,1-0.1,2-0.2,3l0,0.2l-0.1,0.2
		c-0.1,0.2-0.1,0.4-0.1,0.5c0,0.6-0.1,1.1-0.3,1.7c-0.4,1.9-0.5,2.5-0.5,2.7c0,0.2,0,0.7,0,2.3c0.1,0.5,0.1,1-0.1,1.5
		c0,0.1-0.1,0.3-0.1,0.5l-0.1,1l-1.4,0.6c0,0.2,0,0.4,0,0.6c-0.1,0.7,0,0.9,0,1l0.1,0.4l-0.2,1.9l-0.7,0.3c0,0.2,0,0.5,0,0.6l0,0.3
		l-0.1,0.3c-0.1,0.2-0.2,0.4-0.2,0.5c0.1,0.3,0.3,0.7,0.5,1l0.6,0.9c0,0-0.6,1-0.7,1.1c0.1,0.2,0.2,0.5,0.2,0.7
		c0.2,0.6,0.4,1.2,0.5,1.9c0.1,0.2,0.3,0.5,0.5,0.8l0.3,0.3l0.1,0.4c0.1,0.8,0.2,1.5,0.3,2.2c0,0.4,0.1,0.9,0.2,1.4l0.3,0.4
		c0.4,0.1,0.7,0.1,1.1,0.1l0.2,0c0.8,0,1.5,0.1,2.3,0.3c0.7,0.2,1.3,0.3,1.9,0.3c0.6,0,1.2,0.1,1.8,0.1c0.1-0.1,0.2-0.1,0.3-0.3
		l0.3-0.3l0.4-0.1c0.4-0.1,0.8-0.1,1-0.1c0.2,0,0.4-0.1,0.6-0.1l1-0.2c0.2-0.1,0.4-0.1,0.6-0.1l0.1,0l0.1,0l-0.2,0
		c-0.2,0-0.3,0-0.4,0.1c0,0,0.7,1.4,0.7,1.5l1.4,0.1c0-0.4-0.1-0.8-0.3-1.1c-0.2-0.3-0.6-0.5-1-0.6l1.6,0.2l-0.3,2.9l-0.1,0.1
		c0.2,0.1,0.3,0.2,0.5,0.4l1.5,1.3l-1.1,0.9c0.1,0.1,0.2,0.2,0.3,0.3l1.6,1.6c0.7,0.1,1.3,0.2,2,0.2c0.5-0.2,1.1-0.3,1.6-0.3
		c0.4,0,0.8,0,1.2,0.1c0.5,0.1,1,0.3,1.5,0.5c0.3,0,0.5-0.1,0.7-0.1l0.2,0c0.3,0,0.6,0,0.9,0c0.2,0,0.4,0,0.5,0c0.1,0,0.2,0,0.3,0
		c0.3,0,0.5-0.1,0.9-0.3l0.1,0l0.1,0c0.6-0.2,1.1-0.3,1.7-0.5l0.5-0.1c0.1,0,0.2-0.1,0.3-0.1c0.9-0.2,1.8-0.4,2.6-0.6l0.1,0
		c0.1,0,0.2-0.1,0.3-0.1c0.9-0.3,1.7-0.6,2.4-0.9c0.7-0.2,1.3-0.5,2-0.8l0.4-0.2l1.7,0.2c0.2-0.1,0.4-0.2,0.6-0.3
		c0.4-0.2,0.9-0.5,1.3-0.7c1-0.6,2-1.2,2.9-1.9c0.4-0.3,0.8-0.6,1.1-0.9c0-0.5,0.2-0.9,0.3-1.1c0.1-0.1,0.2-0.3,0.3-0.4
		c0.1-0.2,0.2-0.3,0.4-0.4l0.1-1l0.5-0.4c0.2-0.1,0.4-0.3,0.5-0.4c0.1-0.1,0.2-0.2,0.2-0.3c0-0.5,0-1.1-0.1-1.6c0-0.5,0-0.9-0.1-1.4
		c0,0,0-0.1,0.1-0.1c0.3-0.8,0.6-1.7,1-2.8c0.3-0.7,0.4-1.4,0.6-2.2c0.2-1.1,0.5-2.1,0.9-3c0.1-0.4,0.1-0.8,0.2-1.2
		c0.1-0.4,0.1-0.9,0.1-1.3l0-0.2l0-0.2c0.2-1.2,0.3-1.9,0.3-2.3c-0.1-0.7-0.1-1.4-0.1-2.1C210.7,66.9,210.6,66.4,210.5,66z
		 M197.8,20.5c0.1-0.6,0.4-1.2,0.7-1.8c0.2-0.3,0.3-0.6,0.4-1c0.2-0.2,0.5-0.3,0.6-0.5c0.4-0.7,1.1-0.9,1.8-1.2
		c0.8-0.3,1.3,0.1,1.9,0.4c0.9,0.5,1.4,1.5,1.9,2.5c0,0.1,0.1,0.1,0.1,0.2c0.1,0.6,0.4,1.1,0.3,1.8c0,0.1,0,0.2,0,0.3
		c0.2,0.5-0.1,1.1,0.2,1.6c-0.1,0.5-0.3,1-0.4,1.5c-0.1,0.2-0.1,0.4-0.2,0.6l0.1,0.1c-0.2,0.1-0.4,0.3-0.5,0.4c0,0,0.1,0.1,0.1,0.1
		c0,0.1-0.1,0.2-0.2,0.3c-0.1,0.1-0.2,0.2-0.2,0.2c-0.1-0.1-0.1-0.1-0.2-0.2c-0.3,0.7-0.9,1.1-1.4,1.6c-0.6,0.5-1.4,0.4-2.1,0.9
		c-0.1,0.1-0.3,0-0.6,0c0.1-0.1,0.1-0.2,0.2-0.3c-0.1,0-0.2,0-0.3,0c0,0.1-0.1,0.2-0.1,0.3c-0.2-0.1-0.3-0.2-0.5-0.3
		c-0.1,0.1-0.1,0.1-0.1,0.1c-0.4-0.3-0.8-0.6-1-1.1c-0.2-0.4-0.4-0.8-0.3-1.2c0-0.4,0.1-0.8,0.1-1.2c0-0.6,0-1.1-0.2-1.7
		C197.6,22.1,197.7,21.3,197.8,20.5z M192.9,17.6c0,0,0.1,0.1,0.1,0.1l0,0C192.9,17.7,192.9,17.7,192.9,17.6L192.9,17.6z
		 M192.8,18.5c0.3-0.2,0.1-0.5,0.2-0.7c0.1,0,0.2,0,0.3,0c-0.1-0.2-0.1-0.4-0.2-0.5c0.3-0.2,0.5-0.4,0.8-0.5
		c1.3-0.4,2.3,0.4,2.7,1.4c0.1,0.2,0.1,0.4,0.1,0.7c0,0-0.1,0.1-0.1,0.2c0.2,0.2,0.2,0.3,0,0.5c0.3,0.2-0.1,0.3-0.1,0.5
		c0.1,0.2,0,0.4,0,0.5c-0.4,0.9-0.9,1.5-1.7,1.7c-0.4-0.1-0.7-0.2-1.1-0.3c-0.1-0.4-0.7-0.4-0.7-1c0-0.4-0.2-0.9-0.4-1.3
		c0.1-0.1,0.2-0.2,0.2-0.3c-0.1-0.2-0.2-0.3-0.3-0.4c0.1,0,0.2-0.1,0.4-0.1C192.9,18.6,192.9,18.6,192.8,18.5z M186.5,20.5
		c0-0.2,0.1-0.5,0.1-0.7c0-0.5,0.1-0.7,0.5-1c0.1-0.1,0.2-0.2,0.3-0.3c0.1,0,0.2,0,0.4,0c0-0.1,0.1-0.2,0.2-0.3
		c0.1,0.1,0.1,0.1,0.1,0.2c0.1-0.1,0.2-0.2,0.3-0.3c0.2,0.3,0.4-0.1,0.6,0c0.2,0.1,0.5,0,0.7,0.1c0.2,0.1,0.4,0.2,0.6,0.3
		c-0.1,0.4,0.4,0.2,0.4,0.5c0,0.2,0,0.4,0,0.4c0.3,0.4,0.6,0.7,0.8,0.9c0.1,0.3,0.1,0.5,0.2,0.7c-0.1,0.2-0.1,0.4-0.2,0.6
		c-0.6,0.7-1.3,1.5-1.9,2.2c-1.1,0.1-2-0.4-2.6-1.4C186.6,21.9,186.3,21.3,186.5,20.5z M181.1,23.1c0.1-0.2,0.2-0.4,0.3-0.8
		c0.4-0.2,0.8-0.5,1.3-0.8c0,0,0.1,0.1,0.1,0.2c0.4-0.3,0.8-0.1,1.2-0.2c0.1,0,0.3,0,0.4,0.1c0.3,0.3,0.6,0.6,0.9,0.9
		c0,0-0.1,0-0.1,0.1c0.2,0.5,0.3,1,0.5,1.7c-0.1,0.4-0.2,1-0.4,1.5c-0.4,0.3-0.8,0.6-1.2,0.9c-0.5,0-0.8-0.1-1.1-0.1
		c-0.3-0.3-0.5-0.5-0.7-0.7c-0.3-0.3-0.7-0.5-0.9-0.9C181.2,24.5,180.9,23.8,181.1,23.1z M176.5,27.9c0.1-0.1,0.1-0.2,0.2-0.3
		c0.3-0.6,0.8-1,1.3-1.3c0.5-0.3,1-0.4,1.6-0.1c0,0.3,0.4,0.3,0.5,0.6c0.1,0.3,0.3,0.5,0.5,0.8c-0.2,0.6,0.1,1.1,0.2,1.6
		c-0.1,0.4-0.2,0.7-0.2,0.8c-0.3,0.3-0.5,0.4-0.7,0.6c-0.4,0.2-0.8,0.4-1.1,0.4c-0.4,0-0.8-0.1-1.3-0.1c-0.3-0.4-0.6-0.8-0.8-1.1
		c-0.1-0.4-0.2-0.7-0.3-1.1C176.4,28.6,176.4,28.2,176.5,27.9z M192.6,63.5L192.6,63.5c0-0.1,0-0.1,0-0.2l0.1,0
		C192.6,63.4,192.6,63.4,192.6,63.5z M192.8,63c-0.1,0-0.2,0-0.3,0l0-0.1C192.5,62.9,192.7,62.9,192.8,63L192.8,63z M193,62L193,62
		c0-0.1,0-0.1,0-0.2l0.1,0C193,61.9,193,62,193,62z M193.2,61.1c-0.1,0-0.1,0-0.2,0l0-0.1C193.1,61.1,193.2,61.1,193.2,61.1
		L193.2,61.1z M199.3,38.9c-0.4,0.6-1,1.1-1.7,1.3c-0.1,0-0.2,0.1-0.3,0.2c-0.2,0.4-0.6,0.5-1,0.7c-0.4,0.2-0.7,0.5-1.1,0.8
		c0.5,0.4-0.3,0.8-0.1,1.2c-0.7,0.5-0.9,1.5-1.8,1.8c-0.1,0-0.2-0.1-0.5-0.2c0.1,0.2,0.2,0.3,0.3,0.4c-0.4,0.1-0.7,0.1-1,0.2
		c0,0.1,0.1,0.1,0.1,0.2c-0.1,0.1-0.3,0.1-0.4,0.2c-0.7,0.4-1.4,0.7-2.2,0.7c-0.1,0.1-0.1,0.1-0.2,0.2c-0.8,0.1-1.3,0.8-2,1.1
		c-0.3,0.5-1,0.8-1.2,1.5c0,0,0.2,0.1,0.3,0.3c-0.2,0-0.4,0-0.6,0c0,0.1,0.1,0.2,0.1,0.2c-0.1,0.1-0.1,0.1-0.2,0.2
		c0.2,0.1,0.3,0.1,0.5,0.1c-0.1,0.1-0.2,0.1-0.2,0.2c0,0.1,0.1,0.1,0.1,0.2c-0.1,0.1-0.1,0.1-0.1,0.1c0.1,0.3,0.2,0.5,0.3,0.8
		c0.6,0,0.6,0.5,0.8,0.8c-0.1,0.1-0.1,0.2-0.2,0.3c0.1,0.1,0.2,0.1,0.4,0.2c-0.1,0.2-0.1,0.4-0.2,0.5c0.2,0.5,0.2,0.5,0.1,0.9
		c0.2,0,0.3,0,0.4,0c0,0.3-0.1,0.6-0.1,0.9c0.2,0,0.3,0,0.5,0c-0.1,0.1-0.1,0.2-0.2,0.2c0.1,0,0.2,0.1,0.3,0.1
		c0.1,0.2-0.2,0.5,0.1,0.6c0.1-0.1,0.1-0.2,0.2-0.3l0,0c0,0-0.1-0.1-0.1-0.1l0.1,0c0,0,0.1,0.1,0.1,0.1l0,0c0.1,0.1,0.1,0.2,0.2,0.3
		c-0.2,0-0.3,0-0.4,0c-0.1,0.1-0.1,0.2-0.2,0.3c0.2,0,0.3,0,0.4,0.1c0.1,0,0.2,0.1,0.4,0.2l0.1-0.1c0-0.1-0.1-0.1-0.1-0.2
		c0.1-0.1,0.2-0.3,0.4-0.5c0,0.3,0,0.5-0.1,0.7c-0.1,0.2,0.2,0.4-0.1,0.5c0.1,0,0.2,0.1,0.3,0.1c0,0.2,0,0.3,0,0.5
		c0.2,0,0.3,0,0.5,0c0-0.2-0.1-0.4-0.1-0.6c0.1,0,0.2,0,0.4,0c0,0.3-0.1,0.5-0.1,0.7c0.2,0,0.5,0,0.7-0.1c0.1-0.4,0.1-0.9,0.2-1.3
		l0,0c0,0-0.1-0.1-0.1-0.1l0.1,0c0,0,0.1,0.1,0.1,0.1l0,0c0.1,0.1,0.2,0.2,0.3,0.2c-0.2,0.4,0.1,0.8-0.2,1.1c-0.1,0-0.2,0-0.2,0
		c0,0.2,0,0.3-0.1,0.5c0.2-0.1,0.4-0.1,0.4-0.1c0.1,0.1,0.2,0.1,0.4,0.2c-0.5,0.2-0.9,0.3-1.2,0.4c0,0.3,0.1,0.5,0.1,0.8
		c0.2,0.1,0.4,0.3,0.6,0.4c0.3-0.1,0.6-0.2,0.9-0.3c0.1,0.3,0.2,0.5,0.2,0.6c0.5,0,0.8-0.4,1.4-0.4c-0.2,0.3-0.4,0.5-0.6,0.7
		c0.1,0.1,0.3,0.1,0.4,0.2c0,0.1,0,0.2,0,0.3l0,0c0,0,0.1,0.1,0.1,0.1l-0.1,0c0,0-0.1-0.1-0.1-0.1l0,0c-0.1-0.1-0.2-0.1-0.2-0.2
		c-0.1,0-0.1,0.1-0.2,0.1c-0.1-0.2,0-0.5-0.4-0.5c-0.1,0.1-0.2,0.1-0.3,0.2c0.2,0.5,0.2,1-0.2,1.5c0.5,0.4,0.3,0.8,0.3,1.3
		c-0.1,0-0.2,0-0.2,0c0.1,0.2,0.2,0.6,0.3,0.6c0.4,0.1,0.2,0.4,0.4,0.6c-0.4,0.3-0.1,0.9-0.5,1.3c-0.1,0,0,0.2,0,0.2
		c0,0.1,0,0.2,0,0.2c0,0,0.1,0.1,0.1,0.1c-0.3,0.2-0.2,0.4-0.3,0.7c-0.1,0.2-0.1,0.5-0.2,0.7c-0.1,0.2,0.1,0.4,0,0.6
		c-0.1,0.2-0.1,0.5-0.1,0.7c0,0.2-0.1,0.5-0.1,0.7c0,0.2-0.1,0.5-0.1,0.8c-0.1-0.1-0.2-0.2-0.3-0.3c0,0.3,0,0.4,0.1,0.6
		c-0.1,0-0.3,0-0.5,0c0,0.2,0,0.4,0,0.6l0.1,0c0.1-0.1,0.1-0.2,0.1-0.3c0.1,0.1,0.2,0.2,0.2,0.2c-0.2,0.9-0.8,1.5-0.8,2.3
		c-0.2-0.1-0.3-0.1-0.5-0.2c0,0.2,0,0.2-0.1,0.3c0.1,0.1,0.2,0.1,0.3,0.2c-0.2,0.4-0.4,0.7-0.6,1c-0.2,0-0.3,0-0.6,0.1
		c0.2,0.1,0.3,0.2,0.4,0.2c-0.1,0.1-0.2,0.2-0.4,0.2c0,0,0,0.1-0.1,0.1c0,0.2,0,0.2,0,0.2c-0.2,0.3-0.4,0.6-0.7,0.8
		c-0.4,0.2-0.4,0.6-0.7,0.8c-0.3,0.3-0.5,0.8-1,0.8c0.1,0.1,0.1,0.1,0.2,0.2c-0.6,0.4-1.2,0.8-1.8,1.1c-0.4,0.2-0.9,0.4-1.4,0.5
		c-0.7,0-1.3,0-2,0c-0.7,0-1.3-0.3-1.7-0.3c-0.4-0.2-0.7-0.3-1-0.4c-0.4-0.2-0.9-0.3-1.3-0.6c-0.9-0.5-1.7-1-2.2-1.8
		c-0.1-0.1-0.2-0.3-0.4-0.4c-0.2-0.1-0.3-0.3-0.4-0.4c-0.2-0.6-0.5-1.1-0.9-1.6c0-0.2,0.1-0.4,0.1-0.6l0,0c0,0,0,0,0,0
		c-0.1-0.2-0.2-0.3-0.2-0.5c0-0.6-0.1-1.2-0.4-1.7c-0.1-0.1-0.1-0.3-0.1-0.5c0-0.5-0.1-1-0.1-1.6c0.1-0.1,0.1-0.2,0.2-0.3
		c-0.1-0.1-0.2-0.1-0.3-0.2c0-0.3,0-0.5,0-0.8l0,0c0,0-0.1-0.1-0.1-0.1l0.1,0c0,0,0.1,0.1,0.1,0.1c0.1-0.1,0.2-0.1,0.2-0.2
		c-0.2-0.1-0.2-0.1-0.3-0.1c0-0.3,0-0.6-0.1-0.9c0.1,0,0.1-0.1,0.2-0.2c0-0.1-0.1-0.1-0.1-0.2c0.2-0.7,0.1-1.5,0.6-2.2
		c0.1-0.1,0.2-0.4,0.1-0.6c-0.2-0.4,0-0.7,0.1-1c0.1-0.9,0.6-1.7,0.7-2.6c0-0.1,0-0.1,0-0.2c0.3-0.2,0.3-0.5,0.3-0.7
		c0-0.3,0.3-0.4,0.2-0.7c-0.1-0.3,0-0.5,0.2-0.7c-0.2-0.6,0.2-1.2,0.2-1.8c0.2-0.1,0.3-0.2,0.3-0.2c0.1-1.1-0.5-2.1-0.2-3
		c-0.4-1.1-0.4-2-0.3-3c-0.3-0.3-0.4-0.6-0.3-1c0.3-0.1,0.4,0.3,0.5,0.4c0.2-0.1,0-0.4,0.3-0.4c-0.1-0.1-0.1-0.3-0.2-0.4
		c0-0.1,0-0.1,0-0.3c0.2,0,0.3,0,0.5,0c0-0.1,0-0.2,0-0.3c-0.2,0-0.4,0.1-0.7,0.1c0.1-0.2,0.2-0.2,0.3-0.3l0,0c0,0-0.1-0.1-0.1-0.1
		l0.1,0c0,0,0.1,0.1,0.1,0.1l0,0c0.3,0,0.4-0.4,0.5-0.5c-0.1-0.2-0.1-0.3-0.2-0.5c-0.2,0.2-0.3,0.3-0.4,0.4
		c-0.1-0.1-0.1-0.2-0.2-0.3c0.1,0,0.1-0.1,0.2-0.1c-0.1-0.2-0.2-0.3-0.2-0.5c0-0.2-0.1-0.4,0.2-0.4c0,0,0,0,0-0.1
		c-0.1-0.2-0.2-0.3-0.3-0.4c0-0.3,0.1-0.5,0.1-0.7c0.2-0.1,0.4-0.2,0.5-0.2c0.2,0.1,0.4,0.1,0.6,0.2c0.1-0.3,0.1-0.4,0.1-0.6
		c0.1,0,0.3,0,0.5,0.1c0,0.1,0.1,0.2,0.1,0.3c0.2-0.1,0.3-0.1,0.4-0.1l0,0c-0.1-0.2-0.1-0.3-0.1-0.4c-0.2,0-0.4,0-0.6-0.1l0,0
		c0,0-0.1,0.1-0.1,0.1l0-0.1c0.1,0,0.1-0.1,0.1-0.1l0,0c0-0.1-0.1-0.1-0.2-0.3c-0.2,0.2-0.3,0.4-0.5,0.5c0-0.3-0.3-0.3-0.4-0.5
		c-0.2,0-0.4,0-0.6,0c-0.1,0-0.2,0.1-0.2,0.1c0.2,0.1,0.4,0.1,0.6,0.2c0,0,0.1,0,0.2-0.1c-0.1,0.2-0.1,0.3-0.1,0.5c0,0-0.1,0-0.1,0
		l0,0c0,0-0.1,0.1-0.1,0.1l0-0.1c0,0,0.1-0.1,0.1-0.1c-0.1-0.1-0.1-0.1-0.2-0.2c-0.1,0.2-0.2,0.3-0.3,0.5c-0.1-0.2-0.1-0.2-0.2-0.3
		c0,0-0.1-0.1-0.1-0.1c0.1-0.1,0.1-0.1,0.2-0.2c0-0.1,0-0.1,0-0.2c-0.1-0.1-0.2-0.2-0.3-0.3c0.1-0.1,0.1-0.1,0.2-0.1
		c0-0.1-0.1-0.1-0.1-0.3c0.4,0,0.7,0,1,0.1l0-0.1c-0.2,0-0.5-0.1-0.8-0.1c0-0.1,0.1-0.2,0-0.3c0-0.1,0-0.2-0.1-0.3
		c0.1,0,0.2,0,0.3-0.1l0-0.1c-0.2,0-0.4,0-0.6-0.1c0.1-0.3,0.1-0.6-0.2-0.7l0,0c0,0-0.1,0.1-0.1,0.1l0-0.1c0,0,0.1-0.1,0.1-0.1l0,0
		c0.3-0.3,0.3-0.7,0.3-1c0.1-0.5-0.4-0.4-0.5-0.9c0.2,0.1,0.4,0.2,0.6,0.3c0.1-0.5-0.5-0.6-0.4-1.1c0.1-0.4-0.1-0.7,0-1.1
		c0-0.4,0.3-0.8,0.5-1.1c0-0.1-0.1-0.1-0.1-0.1c0.1-0.5,0.4-0.8,0.4-1.2c0-0.5,0.2-0.8,0.5-1.2c0.1,0.1,0.1,0.1,0.2,0.2
		c-0.1-0.5,0-0.9,0.1-1.2c0.1-0.1,0.2-0.2,0.3-0.2c0.1,0.1,0.3,0.2,0.4,0.3c0.1-0.1,0.2-0.1,0.2-0.2c0.2,0.3,0.5,0.4,0.9,0.4
		c0.1-0.1,0.1-0.2,0.2-0.3c-0.1,0-0.2-0.1-0.1,0c0-0.1,0.1-0.2,0.1-0.3l0.1,0.1c0,0.1,0,0.2,0,0.3c0.4-0.1,0.9-0.3,1.3-0.4
		c0.2,0.2,0.3,0.4,0.5,0.6c0,0,0.1,0,0.1-0.1c0-0.1-0.1-0.3-0.1-0.4c0.2-0.1,0.5-0.2,0.7-0.2c0.7,0,1.3-0.2,1.8-0.7c0,0,0.1,0,0.1,0
		c0.1,0.1,0.2,0.2,0.3,0.5c0-0.3,0-0.4-0.1-0.6c0.1-0.1,0.2-0.3,0.4-0.5c0.1,0.1,0.2,0.2,0.4,0.4c0-0.2,0-0.3,0.1-0.5
		c-0.2,0-0.4,0-0.7-0.1c0.5-0.3,1-0.5,1.2-0.9c0.2,0,0.4,0.1,0.6,0.1c0-0.2,0-0.2,0-0.3l0,0c0,0-0.1-0.1-0.1-0.1l0.1,0
		c0,0,0.1,0.1,0.1,0.1l0,0c0.1,0,0.2-0.1,0.3-0.1l-0.1-0.1c0.1-0.1,0.2-0.1,0.4-0.2c0,0.1,0,0.2,0,0.3c-0.1,0-0.2,0-0.3,0
		c0.3,0.2,0.4,0.2,0.6,0c0-0.1-0.1-0.1-0.2-0.2c0.2-0.2,0.2-0.6,0.6-0.6c0-0.1,0-0.2,0-0.3c0.1,0,0.3,0,0.5-0.1
		c0.2-0.2,0.4-0.4,0.6-0.5c0.1,0.1,0.1,0.1,0.1,0.2c0.2-0.4,0.7-0.5,1.1-0.8c0.1,0.1,0.1,0.3,0.2,0.4c0.1-0.1,0.2-0.2,0.3-0.3
		c0-0.1-0.1-0.1-0.1-0.2c0.1-0.1,0.2-0.2,0.2-0.2c0.2,0.1,0.4,0.1,0.5,0.2c0.1-0.2,0.2-0.3,0.3-0.5c0.4,0,0.8-0.1,1.2-0.1
		c0.4,0,0.8,0.2,1.2,0.3c0,0.1,0.1,0.2,0.1,0.3c0.2,0,0.4,0,0.6,0c0.4,0.2,0.8,0.5,1.3,0.8c0.2,0,0.5,0,0.9,0.1
		c0.2,0,0.4,0.2,0.5,0.2c0.5-0.3,0.8,0.1,1.2,0.2c0,0,0.1-0.1,0.1-0.1c0.4,0.1,0.8,0.1,1.2,0.2c0.5,0.2,1,0.6,1.6,0.8
		c0.7,0.4,0.9,1.2,1.4,1.8c0.2,0,0.3,0,0.5,0c0.1,0.1,0.1,0.2,0.2,0.2c0,0.2,0,0.4,0,0.6c-0.2,0.1-0.3,0.2-0.5,0.3
		c0,0.2,0.1,0.5,0.1,0.7c0,0.9,0.1,1.7,0,2.6c-0.1,0.9-0.3,1.7-0.7,2.4c0.1,0.1,0.1,0.1,0.1,0.2C199.9,38.2,199.8,38.7,199.3,38.9z
		 M192.7,59c0,0.1,0,0.1,0,0.2l-0.1,0C192.7,59.1,192.7,59,192.7,59L192.7,59z M192.5,58.7L192.5,58.7c-0.1,0.1-0.1,0-0.2,0l0-0.1
		C192.4,58.7,192.4,58.7,192.5,58.7z M192.2,58.7c-0.8,0.5-1,0.5-1.4,0.1C191.4,58.4,191.7,58.3,192.2,58.7z M191.2,54.4
		c0,0.1,0,0.1,0,0.2l-0.1,0C191.1,54.5,191.1,54.4,191.2,54.4L191.2,54.4z M190.8,53.4c0,0.1,0,0.1,0,0.2l-0.1,0
		C190.7,53.5,190.7,53.4,190.8,53.4L190.8,53.4z M190.7,54c0,0.1,0,0.1,0,0.2l-0.1,0C190.6,54.1,190.6,54.1,190.7,54L190.7,54z
		 M188.5,54.6L188.5,54.6c-0.1,0.1-0.2,0.1-0.3,0.1l0-0.1C188.2,54.5,188.3,54.6,188.5,54.6z M174.2,45.9L174.2,45.9
		c0-0.1,0-0.1,0-0.2l0.1,0C174.2,45.8,174.2,45.9,174.2,45.9z M174.2,48.5c0,0.2-0.1,0.3-0.1,0.5C174,48.7,174,48.7,174.2,48.5z
		 M174.1,44.1L174.1,44.1c0-0.1,0-0.1,0-0.2l0.1,0C174.2,44,174.1,44,174.1,44.1z M174.1,47.4c-0.1-0.1-0.1-0.1-0.2-0.2
		C174.1,47.1,174.1,47.1,174.1,47.4z M174,47.6c0,0.1,0,0.2-0.1,0.3l-0.1,0C173.9,47.8,173.9,47.7,174,47.6L174,47.6z M174.3,44.3
		c0.1,0,0.2,0,0.3,0c0,0.2-0.1,0.3-0.1,0.5c-0.1,0-0.2-0.1-0.3-0.1c0.1-0.1,0.1-0.2,0.2-0.2C174.4,44.5,174.4,44.4,174.3,44.3z
		 M174.8,47.2c0,0,0,0.1,0,0.1c-0.1,0-0.2-0.1-0.3-0.1l0-0.1C174.6,47.2,174.7,47.2,174.8,47.2z M176.7,43.8L176.7,43.8
		c0.1,0,0.1,0,0.2,0l0,0.1C176.8,43.8,176.7,43.8,176.7,43.8z M174,40.6c0-0.1,0-0.1,0-0.2l0.1,0C174.1,40.5,174.1,40.5,174,40.6
		L174,40.6z"/>
	<path d="M184.7,66.1C184.7,66.1,184.7,66.1,184.7,66.1c0,0.1,0,0.1,0.1,0.2l0.1,0C184.8,66.2,184.8,66.1,184.7,66.1L184.7,66.1z"/>
	<path d="M187,51.6c-0.2-0.1-0.3-0.2-0.4-0.3c-0.1,0.1-0.2,0.1-0.2,0.2c0.2,0.2,0.3,0.3,0.5,0.6C186.9,51.9,187,51.8,187,51.6z"/>
	<path d="M197.2,38.6c0.1,0,0.2,0,0.3,0l0-0.1c-0.1,0-0.2-0.1-0.3-0.1C197.3,38.5,197.2,38.6,197.2,38.6z"/>
	<path d="M196.1,39.4c0.1,0,0.2,0,0.3,0.1c0-0.1,0-0.2,0-0.3c-0.1,0-0.1,0-0.2,0C196.2,39.2,196.2,39.3,196.1,39.4z"/>
	<path d="M195.1,42.5L195.1,42.5c0.1-0.1,0.1-0.1,0.1-0.2l-0.1,0C195.1,42.4,195.1,42.4,195.1,42.5z"/>
	<path d="M185.1,67.1c0.2,0,0.4,0,0.6,0l0-0.1c-0.2,0-0.4-0.1-0.6-0.1C185.1,67,185.1,67.1,185.1,67.1z"/>
	<path d="M184.8,65.8C184.8,65.8,184.8,65.8,184.8,65.8c0.2-0.1,0.2-0.2,0.2-0.3l-0.1,0C184.8,65.6,184.8,65.7,184.8,65.8z"/>
	<path d="M184.6,66c0,0,0.1,0.1,0.1,0.1c0-0.1,0-0.2,0.1-0.2C184.7,65.9,184.6,65.9,184.6,66z"/>
	<path d="M187.3,58.8c0,0-0.1,0.1-0.1,0.1c0.2-0.1,0.3-0.1,0.5-0.2c-0.1-0.1-0.2-0.2-0.2-0.2c-0.1,0-0.3,0.1-0.5,0.2
		C187.1,58.7,187.2,58.7,187.3,58.8z"/>
	<path d="M185.2,64.8c0.1-0.1,0.2-0.1,0.2-0.2c0.1,0.1,0.2,0.1,0.4,0.2c0-0.1,0.1-0.2,0.1-0.4c-0.3,0-0.5,0-0.7-0.1
		C185.2,64.6,185.2,64.7,185.2,64.8z"/>
	<path d="M186.7,61.6L186.7,61.6c0,0.1,0.1,0.2,0.3,0.3c0-0.1,0-0.1,0-0.2C186.9,61.6,186.8,61.6,186.7,61.6z"/>
	<path d="M186.6,66.8c0.2-0.1,0.4-0.2,0.6-0.3c-0.3,0-0.4,0-0.6,0C186.6,66.6,186.6,66.7,186.6,66.8z"/>
	<path d="M185.6,56.2c0.1,0.1,0.2,0.1,0.3,0.2C186,56.2,186,56.2,185.6,56.2z"/>
	<path d="M190.8,60.6c0-0.1,0-0.1-0.1-0.2l-0.1,0C190.8,60.5,190.8,60.5,190.8,60.6L190.8,60.6c0,0,0.1,0.1,0.1,0.1l0.1,0
		C191,60.6,190.9,60.6,190.8,60.6L190.8,60.6z"/>
	<path d="M176.3,39.3c0.1,0,0.2,0.1,0.3,0.1c0,0,0-0.1,0-0.1C176.5,39.2,176.4,39.2,176.3,39.3L176.3,39.3z"/>
	<path d="M176.6,48.9c0.1,0,0.2,0,0.3,0l0-0.1c-0.1,0-0.2-0.1-0.3-0.1C176.6,48.8,176.6,48.8,176.6,48.9z"/>
	<path d="M176.2,47.3c0,0,0,0.1,0,0.1c0.1,0,0.3,0,0.4,0l0-0.1C176.4,47.4,176.3,47.4,176.2,47.3z"/>
	<path d="M176.9,39.2l0,0.1c0.1,0,0.1,0,0.2,0.1C177.1,39.3,177,39.3,176.9,39.2z"/>
	<path d="M177.5,39.5c-0.1,0-0.2,0-0.3-0.1c0,0.2,0.1,0.3,0.2,0.4C177.5,39.7,177.5,39.6,177.5,39.5z"/>
	<path d="M177.2,39.4L177.2,39.4C177.2,39.4,177.2,39.4,177.2,39.4C177.2,39.4,177.2,39.4,177.2,39.4z"/>
	<path d="M175.7,49.3c0.1,0,0.2-0.1,0.2-0.2c-0.1,0-0.2,0-0.4-0.1C175.5,49.1,175.6,49.2,175.7,49.3z"/>
	<path d="M175.6,50L175.6,50c0-0.1,0-0.1,0-0.2C175.6,49.9,175.6,49.9,175.6,50z"/>
	<path d="M175.3,49.6c-0.1,0-0.1,0-0.2,0.1c0.2,0,0.3,0.1,0.5,0.1c0,0,0,0,0,0l0,0C175.5,49.7,175.4,49.6,175.3,49.6z"/>
	<path d="M175.9,48c0.2,0,0.3-0.1,0.6-0.2c-0.2-0.1-0.4-0.1-0.5-0.1C175.9,47.8,175.9,47.9,175.9,48z"/>
	<path d="M175.5,49.4L175.5,49.4c0.1,0,0.1,0,0.2,0C175.5,49.3,175.5,49.4,175.5,49.4z"/>
	<path d="M177.5,50.2L177.5,50.2c0.1-0.1,0.1-0.2,0.2-0.2c0,0-0.1,0-0.1,0C177.5,50,177.5,50.1,177.5,50.2z"/>
	<path d="M176.6,43.4L176.6,43.4c0.1-0.1,0.1-0.2,0.1-0.3l-0.1,0C176.7,43.2,176.7,43.3,176.6,43.4z"/>
	<path d="M172.4,89.1c0,0,0.1,0,0.1,0c0,0,0,0,0,0L172.4,89.1z"/>
	<path d="M159.5,45.3c0.2-0.5,0.4-0.8,0.6-1.1c0.2-0.3,0.3-0.5,0.5-0.7c0.2-0.2,0.3-0.4,0.5-0.7c0.2-0.4,0.3-0.7,0.4-1
		c0.1-0.3,0.2-0.6,0.4-1c0-0.2,0-0.3-0.1-0.6c-0.1-0.5-0.2-0.8-0.2-0.9c-0.1-0.2-0.4-0.4-0.7-0.4l-1.2-0.8l-0.6,0.6l-0.5,0.8
		c-0.1,0.1-0.1,0.2-0.1,0.3c0,0.1,0,0.1-0.1,0.2c0,0-0.1,0.1-0.1,0.2l0,0.1l0,0.1c-0.5,0.8-0.9,1.5-1.4,2.3
		c-0.4,0.8-0.9,1.6-1.5,2.3c-0.4,0.5-0.8,1.1-1.2,1.8c-0.7,1.1-1.6,2.2-2.8,3.5c-0.2,0.2-0.6,0.6-1.1,1.2c-0.6,0.7-1.3,1.4-1.9,2.1
		c-0.6,0.6-1.3,1.3-1.9,2c-1,1-2,1.8-3.1,2.6c-1.1,0.8-2.2,1.6-3.3,2.4c-0.7,0.5-1.6,1-2.6,1.4c-1.4,0.6-2.8,1.2-4.3,1.6
		c-1.4,0.4-2.9,0.8-4.4,1.2c-0.5-0.1-0.9-0.3-1.3-0.4c-0.4-0.6-0.6-1.2-0.7-1.8c-0.1-0.5-0.3-1.1-0.6-1.6c-0.2-0.4-0.3-0.8-0.3-1.3
		c0-0.5,0-0.9-0.2-1.3c0.2-0.5,0.3-0.8,0.3-0.9c-0.1-0.3-0.3-0.5-0.3-0.7c0-1.1,0.2-1.9,0.6-2.5c0.3-0.8,0.5-1.6,0.4-2.4
		c0-0.8,0.1-1.3,0.3-1.6c0.8-0.1,1.5-0.2,2.3-0.2c0.7,0,1.5,0,2.3,0c0.2,0,0.5,0,0.7,0.1c0.2,0,0.4,0,0.6,0c0.4-0.1,0.8-0.2,1.2-0.1
		c0.4,0.1,0.8,0.1,1.2,0.1c0.5,0,0.9,0,1.4-0.1c0.5-0.1,0.9-0.2,1.4-0.3c0.9-0.3,1.8-0.8,2.7-1.6c0.2-0.5,0.4-0.9,0.6-1.4
		c0.3-0.5,0.5-1,0.8-1.5c0.3-0.6,0.5-1.1,0.5-1.5c0.2-1.4,0.3-2.8,0.2-4.3c0-0.4,0-0.7,0-1c0-0.3-0.1-0.7-0.1-1
		c-0.6-1.1-1.1-2.2-1.5-3.3c-0.8-0.5-1.5-0.8-2.3-1c-0.8-0.2-1.5-0.5-2.2-0.9c-1.3,0-2.6-0.1-3.9-0.2c-1.3-0.1-2.5-0.2-3.8-0.2
		c-0.2,0.2-0.3,0.2-0.5,0.3c-0.2,0-0.4,0.1-0.5,0.3l-0.1,0.1l-0.5,0c-0.7,0.1-1.4,0.2-2.1,0.3c-0.7,0.1-1.4,0.3-2.1,0.6
		c-0.8,0.1-1.4,0.4-2,0.7c-0.5,0.4-1.1,0.5-2,0.5c-0.1,0.3-0.2,0.6-0.3,0.9c-0.1,0.3-0.3,0.5-0.6,0.6c-0.1,0.1-0.2,0.3-0.5,0.7
		c-0.3,0.4-0.6,0.7-0.9,1.1c-0.2,0.3-0.5,0.7-0.8,1c-0.6,0.5-1,1.1-1.4,1.7c-0.4,0.6-0.8,1.2-1.2,1.8c-0.2,0.3-0.3,0.5-0.3,0.7
		c0,0.5-0.2,0.9-0.5,1.3c-0.3,0.4-0.3,0.8-0.1,1.4c-0.3,0.3-0.5,0.6-0.4,1c0,0.3,0,0.7-0.2,1.1c-0.2,0.3-0.3,0.6-0.5,0.8
		c-0.2,0.2-0.3,0.5-0.5,0.8c-0.4-0.1-0.6-0.2-0.6-0.3c0,0.3,0,0.6,0,0.8c0,0.2,0,0.5-0.1,0.7c-0.1,0.5-0.1,0.9-0.1,1.4
		c0,0.5,0,1,0,1.4c0,1,0,2,0.2,2.9c0.1,0.5,0.2,1.1,0.2,1.6c-0.2,0.1-0.3,0.3-0.5,0.4c-0.7,0.6-1.4,1.1-2.1,1.7
		c-1,0.7-1.8,1.5-2.6,2.3c-0.8,0.8-1.7,1.5-2.8,2.1c-0.2,0.1-0.3,0.2-0.5,0.3c-0.6,0.5-1.2,1-1.8,1.5c-0.6,0.5-1.2,0.9-1.8,1.3
		l-0.2,0.2c-0.4,0.1-0.8,0.3-1.2,0.4c-0.4,0.1-0.8,0.3-1.2,0.5c-0.4,0.1-0.8,0.3-1.3,0.4c-0.5,0.1-1,0.2-1.5,0.3
		c-0.6-0.3-1.1-0.5-1.4-0.6c-0.4-0.4-0.7-0.8-0.9-1.1c-0.3-0.3-0.5-0.6-0.7-1c-0.2-0.5-0.4-0.9-0.5-1.3c-0.1-0.4-0.4-0.7-0.8-1.1
		c-0.1-0.2-0.1-0.5-0.1-0.9c-0.1-0.2-0.1-0.4-0.1-0.6c0-0.2-0.1-0.4-0.2-0.6c0.3-0.4,0.4-1,0.3-1.8c-0.1-0.7-0.1-1.5,0.1-2.3
		c0-0.1,0-0.1-0.1-0.2c-0.1,0-0.1-0.1,0-0.2c0.2-0.2,0.2-0.5,0.3-0.7c0-0.3,0-0.5,0-0.8c0-0.2,0-0.3,0.1-0.4
		c0.1-0.1,0.1-0.2,0.1-0.4c0.2-0.5,0.3-0.9,0.3-1.4c0.1-0.5,0.2-0.9,0.3-1.4c0-0.1,0-0.1-0.1-0.2c0,0-0.1-0.1-0.1-0.2l0-0.1
		c0.4-1.5,1-3.1,1.6-4.6c0.2-0.4,0.3-0.8,0.4-1.3c0.1-0.5,0.3-0.9,0.5-1.3c0.9-1.5,1.8-3,2.8-4.4c0.9-1.4,2-2.8,3.1-4.1
		c0.4-0.4,0.8-0.7,1.1-1.1c0.3-0.4,0.7-0.7,1.1-1.1c0.2-0.1,0.4-0.3,0.6-0.4c0.2-0.1,0.5-0.2,0.7-0.4c0.4,0.5,0.9,1,1.3,1.4
		c0.4,0.5,0.8,1,1.3,1.4c0.2,1.3-0.3,2.7-1.5,4.2l0.5,1.2c0.5,0.3,0.8,0.6,1.1,0.9c0.3,0.2,0.6,0.4,0.8,0.6l1.2,0
		c0.6-0.4,1.1-0.8,1.3-1c-0.1-0.2-0.1-0.3-0.2-0.5c-0.1-0.2-0.1-0.4-0.1-0.6c0-0.6,0-1.2,0-1.8c0-0.6,0.1-1.2,0.2-1.8
		c0.2-0.6,0.3-1.2,0.3-1.9c0-0.7,0.1-1.3,0.2-2c-0.6-0.9-1.2-1.7-1.8-2.5c-0.6-0.8-1.5-1.3-2.7-1.5c-0.8,0.1-1.4,0.2-2,0.2
		c-0.6-0.1-1.2-0.1-1.7,0.1c-0.5,0.1-1.1,0.2-1.7,0.3c-1.2,0.6-2.3,1.1-3.5,1.7c-1.1,0.5-2.1,1.4-2.9,2.5c-0.5,0.4-0.8,0.7-1.1,0.9
		c-0.8,0.6-1.5,1.2-2.2,1.9c-0.7,0.7-1.3,1.4-2,2.2c-0.6,0.7-1.2,1.4-1.8,2.1c-0.5,0.7-1.1,1.4-1.6,2.2c0,0.5-0.1,0.8-0.4,1.1
		c-0.2,0.3-0.4,0.6-0.6,1c-0.3,0.5-0.6,0.9-0.9,1.4c-0.3,0.5-0.6,0.9-0.8,1.5c-0.5,0.9-1,1.8-1.5,2.7c-0.5,0.9-1,1.9-1.4,2.8
		c-0.3,0.7-0.7,1.4-0.9,2.1c-0.3,0.7-0.4,1.5-0.4,2.3c-0.2,0.2-0.2,0.3-0.2,0.3c-0.1,0.4-0.1,0.7-0.2,1c0,0.3,0,0.7,0,1
		c0,0.1,0,0.2-0.1,0.3c0,0.1,0,0.1-0.1,0.2c-0.2,0.3-0.3,0.6-0.3,0.8c0,0.4-0.1,0.7-0.2,1c-0.1,0.3-0.3,0.6-0.4,1l-0.4,1.4
		c-0.7,2.3-1.6,4.5-2.7,6.5c-0.2,0.2-0.3,0.3-0.3,0.5c0,0.2-0.1,0.3-0.3,0.5l-0.5,0.2c-0.1-0.4,0-0.8,0.2-1.2c0.2-0.4,0.2-0.8,0-1.2
		c-0.1-0.4-0.1-0.8-0.1-1.1c0-0.3,0-0.7,0-1.1c0-0.4,0-0.8-0.2-1.2c-0.1-0.4-0.2-0.8-0.2-1.3c0.3-0.7,0.2-1.5,0-2.3
		c-0.2-0.6-0.2-1.3,0-2.1c0.2-0.8,0.3-1.5,0.3-2.3c0-0.7,0-1.5-0.1-2.3c-0.1-0.4-0.1-0.7,0-1c0.1-0.3,0.2-0.6,0.3-0.9
		c-0.4-0.6-0.5-1.4-0.3-2.2c0.1-0.4,0.1-0.7,0.2-1.1c0-0.3,0-0.7,0-1.1c-0.1-0.4-0.1-0.7-0.1-1c0-0.3,0-0.7,0-1
		c-0.1-0.6-0.1-1.2,0-1.9c0.1-0.6,0.1-1.2,0.2-1.8c0.1-0.8,0.2-1.5,0.3-2.3c0.1-0.7,0.1-1.5,0-2.3l0-0.7c0.3-0.7,0.4-1.5,0.1-2.3
		c-0.4-0.5-1.1-0.8-1.8-1c-0.9-0.1-1.8-0.1-2.7,0c-0.9,0.1-1.7,0-2.5-0.3c-0.4,0.1-0.7,0.2-1,0.3c-0.3,0.1-0.5,0.1-0.8,0.2
		c-0.3,0.1-0.5,0.3-0.7,0.6c-0.1,0.3-0.3,0.5-0.4,0.6c-0.3,0.5-0.7,0.8-1.2,1.1l0,1c-0.3,0.3-0.5,0.7-0.6,1.1
		c-0.1,0.4-0.2,0.8-0.3,1.2c-0.2,0.6-0.3,1-0.4,1.3c-0.2,0.4-0.4,0.7-0.6,1.1c-0.2,0.3-0.5,0.7-0.8,1.1c-0.3,0.5-0.6,0.9-0.9,1.4
		c-0.3,0.5-0.6,0.9-1,1.3c-0.2,0.6-0.4,1.1-0.8,1.6c-0.4,0.5-0.8,0.9-1.2,1.5c-0.7,0.9-1.3,1.8-1.8,2.7c-0.6,0.9-1.1,1.9-1.6,2.8
		c-0.2,0.2-0.3,0.5-0.4,0.7c-0.1,0.3-0.3,0.5-0.4,0.7c-0.1,0.1-0.2,0.3-0.5,0.4c-0.1-0.5-0.1-1,0-1.5c0.1-0.5,0.3-1,0.5-1.5
		c0.2-0.5,0.4-1,0.6-1.5c0.2-0.5,0.5-1,0.6-1.7c0.6-1.5,1.2-3,1.8-4.5c0.6-1.4,1.2-2.9,1.9-4.5c0.2-0.1,0.3-0.3,0.4-0.5
		c0.1-0.2,0.2-0.3,0.4-0.5c0.2-0.1,0.3-0.5,0.5-0.9c0.2-0.1,0.3-0.3,0.3-0.6c0-0.2,0.1-0.4,0.3-0.6c0.4-0.6,0.8-1.2,1.1-1.9
		c0.3-0.7,0.7-1.3,1.1-1.9l1.5-2c0.4-0.5,0.8-1,1-1.5c0.3-0.5,0.6-0.9,1-1.4c0.3-0.2,0.6-0.5,0.9-0.7c0.3-0.3,0.5-0.5,0.8-0.6
		c0.5-0.1,0.9-0.1,1.3,0c0.4,0.1,0.8,0.2,1.2,0.2c0.5,0,0.9,0,1.3,0c0.4,0,0.9,0.1,1.3,0.2c0.1-0.3,0.3-0.5,0.6-0.5
		c0.3,0,0.5-0.2,0.6-0.6l-0.2-0.2c-0.4-0.2-0.7-0.3-1-0.5c-0.3-0.2-0.6-0.3-0.9-0.5c-0.8,0-1.5,0-2.2-0.1c-0.7-0.1-1.4-0.2-2.2-0.1
		c-0.8,0-1.5,0.1-2.3,0c-0.7,0-1.4,0-2.1,0l-1.1,0.7c-0.2,0.1-0.3,0.3-0.4,0.4c-0.1,0.2-0.3,0.3-0.4,0.4c-0.4,0.4-0.8,0.9-1.3,1.3
		c-0.5,0.4-0.9,0.9-1.3,1.4c-0.3,0.5-0.7,0.9-1.1,1.3c-0.4,0.4-0.8,0.8-1.2,1.2c-0.4,0.5-0.8,1-1.3,1.5c-0.4,0.4-0.8,0.9-1.2,1.5
		c-0.4,0.5-0.8,1-1.1,1.5c-0.3,0.5-0.6,1-0.9,1.6c-0.2,0.3-0.3,0.6-0.4,0.9c-0.1,0.3-0.3,0.5-0.4,0.7c-0.3,0.8-0.6,1.3-0.9,1.6
		c-0.2,0.3-0.3,0.6-0.4,0.9c-0.1,0.3-0.3,0.5-0.5,0.7c-0.3,0.2-0.5,0.5-0.5,0.7c0,0.3-0.1,0.6-0.3,0.9c-0.5,0.8-0.9,1.5-1.2,2.3
		c-0.3,0.8-0.7,1.6-1.1,2.4c-0.2,0.4-0.3,1-0.5,1.7c-0.3,1.9-0.7,3.7-1.2,5.3l-0.7,0.7c0.1,0.2,0.1,0.3,0.1,0.5c0,0.2,0,0.3,0.1,0.5
		l-0.6,0.6c0.1,0.9,0.3,1.8,0.4,2.7c0.2,0.9,0.3,1.8,0.5,2.9c0.3,0.3,0.7,0.8,1.1,1.4c1.1,0.7,2.2,1.1,3.3,1.3
		c1.2,0.2,2.3,0.4,3.3,0.6c0.4,0.1,0.7,0.1,1,0c0.3-0.1,0.7-0.1,1.2-0.2c0.5,0.2,1,0.2,1.5-0.1c0.3-0.1,0.9-0.2,1.6-0.3
		c0.3-0.1,0.6-0.3,0.7-0.4c0.2-0.2,0.3-0.5,0.5-0.7c0.2-0.2,0.3-0.5,0.5-0.7l1.5-1.7c0.2-0.4,0.5-0.7,0.8-0.9
		c0.3-0.2,0.5-0.5,0.7-0.9c0.4-0.2,0.7-0.5,0.9-0.8c0.2-0.3,0.4-0.7,0.7-1.1c0.3-0.5,0.6-0.9,0.9-1.2c0.3,0.6,0.5,1.1,0.5,1.4
		c0.1,0.2,0.1,0.4,0.1,0.8c0.1,0.4,0.1,0.8,0,1.1c-0.1,0.3,0,0.7,0.1,1.1c0.2,0.5,0.3,0.9,0.3,1.4c0,0.5,0,0.9,0.1,1.4
		c0.1,0.5,0.1,1,0.2,1.5c0.1,0.5,0.1,1,0.2,1.5c0.1,0.3,0.1,0.6,0.1,0.9c0,0.3,0,0.7,0.1,1c0.2,1.3,0.5,2.5,1,3.6
		c0.9,1.6,2.1,2.4,3.6,2.3c0.4-0.1,0.8-0.1,1.2-0.1c0.4,0,0.8,0,1.2,0c0.6-0.1,1.2-0.1,1.7-0.2c0.5-0.1,1-0.2,1.5-0.5
		c0.3-0.2,0.6-0.5,0.9-0.7c0.3-0.3,0.5-0.5,0.8-0.6c0.4-0.4,0.7-0.8,1-1.2c0.2-0.3,0.5-0.7,0.9-1.1c0.1-0.2,0.2-0.3,0.2-0.4
		c0.1-0.1,0.2-0.2,0.2-0.4c0.3-0.8,0.7-1.5,1.4-2.3c0.3-0.6,0.6-1,0.7-1.4c0.1,0.1,0.1,0.2,0.2,0.2c0.1,0.2,0.3,0.3,0.3,0.5
		c0.1,0.2,0.2,0.3,0.4,0.3c0.1-0.1,0.1-0.1,0.2-0.1c0,0,0.1,0,0.2-0.1c0,0.1,0,0.1,0.1,0.2c0,0,0.1,0.1,0.1,0.2l0,0l0,0v0l0.3,0.4
		l-0.2,0l0.3,0.4l0-0.3l0,0c0,0.2,0.1,0.2,0.2,0.2c-0.1,0.1-0.2,0.1-0.2,0.1l0,0l0,0.1l0.1-0.1c0.7,0.7,1.4,1.3,2.3,1.7
		c0.9,0.5,1.8,0.9,2.7,1.3c1.7,0.7,3.3,1,4.8,1l0.8,0c1.3,0.1,2.5,0,3.5-0.3c1.1-0.3,2.1-0.8,3.2-1.3c0.6-0.1,1.2-0.3,1.8-0.5
		c0.5-0.2,1.1-0.5,1.7-0.7c0.2-0.1,0.5-0.3,0.8-0.4c0.3-0.1,0.6-0.3,0.9-0.4c0.2-0.1,0.3-0.3,0.3-0.4c0-0.1,0.1-0.2,0.3-0.4
		c0.6-0.2,1.2-0.5,1.7-0.8c0.5-0.3,1-0.7,1.4-1l0.4-0.3l0.2-0.2c0.2-0.1,0.4-0.3,0.6-0.6c0.2-0.2,0.4-0.4,0.6-0.6
		c1.1-0.9,2.1-1.8,3-2.8c0.6-0.6,1.2-1.3,1.7-1.9c0.1,0.2,0.1,0.4,0.2,0.6c0.1,0.5,0.3,1,0.5,1.5c0.2,0.4,0.3,0.8,0.5,1.2
		c0.3,0.4,0.5,0.7,0.7,0.9c0.2,0.2,0.4,0.4,0.5,0.5c0.1,0.2,0.4,0.5,0.7,0.8c0.4,0.2,0.7,0.5,1,0.7c0.3,0.2,0.6,0.4,1,0.6
		c1.7,1.5,3.7,2.4,5.8,2.8c0.6,0.2,1.2,0.3,1.7,0.4c0.5,0.1,1,0.1,1.6,0.2c0.2,0,0.3,0,0.4,0.1c0.1,0,0.2,0.1,0.3,0.1
		c0.3,0,0.6,0,0.8,0c0.2,0,0.4,0,0.6,0c1.7,0.1,3.3-0.1,4.9-0.7c0.3-0.1,0.6-0.2,0.8-0.3c0.2-0.1,0.5-0.2,0.7-0.4
		c0.2,0,0.2,0,0.2-0.1c0.2,0.1,0.3,0.1,0.5,0.1c0.4-0.1,0.7-0.2,1.1-0.3c0.3-0.1,0.7-0.2,1.1-0.3l0.4-0.3c0.4-0.1,0.7-0.4,1-0.7
		c0.3-0.3,0.6-0.6,0.9-0.9c0.4-0.4,0.8-0.9,1.1-1.5c0.3-0.5,0.8-1.1,1.4-1.6l-0.1,0c0.9-0.7,1.7-1.4,2.5-2.1
		c0.8-0.7,1.6-1.4,2.4-2.1c0.2-0.2,0.4-0.4,0.5-0.7c0.1-0.2,0.3-0.5,0.4-0.7c0.2-0.4,0.3-0.7,0.5-0.9c0.2-0.2,0.3-0.5,0.5-0.8
		c0.4-0.4,0.8-0.9,1.2-1.3c0.4-0.4,0.8-0.9,1.1-1.5c0.3-0.5,0.6-0.9,1-1.2c0.3-0.4,0.7-0.7,1.1-1c0.2-0.4,0.3-0.7,0.4-1
		c0.1-0.3,0.3-0.5,0.4-0.9c0.1-0.2,0.4-0.6,0.9-1.2c0.5-0.7,1-1.4,1.5-2.2c0.5-0.8,1-1.5,1.5-2.2c0.4-0.7,0.7-1.1,0.7-1.2
		C159.2,46.2,159.3,45.7,159.5,45.3z M129.3,42.4c0.2-0.6,0.5-1.3,0.8-1.9c0.3-0.4,0.6-0.8,0.8-1.2c0.2-0.5,0.5-0.9,0.8-1.5
		c0.6-0.4,1.1-0.9,1.7-1.4c0.6-0.5,1.4-0.8,2.3-1l1,0.4c0,0.1,0,0.1,0.1,0.2c0,0,0.1,0.1,0,0.3c0.1,0.8,0.2,1.5,0.2,2.1
		c-0.3,0.8-0.7,1.7-1.2,2.5c-0.5,0.8-1.1,1.5-2,2.1c-0.9,0.6-1.7,1.1-2.5,1.5c-0.8,0.4-1.7,0.7-2.6,0.8c-0.1,0-0.1-0.1-0.2-0.1
		c0-0.3,0-0.6,0-0.8C128.8,43.6,129,43,129.3,42.4z M48.3,59.4c-0.1-0.2-0.2-0.2-0.1-0.2c0,0,0.1,0,0.2-0.1
		C48.4,59.2,48.4,59.3,48.3,59.4z M76.1,58.3c0,0-0.1-0.1-0.1-0.2c0,0,0.1,0,0.1,0.1C76.2,58.3,76.1,58.3,76.1,58.3z M78.2,71.2
		c0-0.1,0-0.2,0.1-0.2C78.3,71.1,78.3,71.2,78.2,71.2z M80.8,54.3c0.1-0.1,0.1-0.2,0.1-0.3C81,54.2,81,54.3,80.8,54.3z M81.4,52.9
		c-0.2-0.2-0.2-0.4,0-0.7L81.4,52.9z M86.6,56.3c-0.1-0.4-0.1-0.7,0.1-0.8C87,55.9,87,56.1,86.6,56.3z M86.9,59.6l0.1-0.1
		c0.2,0,0.3,0,0.3,0.1C87.2,59.7,87,59.7,86.9,59.6z M127,64.2C127,64.2,127,64.2,127,64.2C127.1,64.2,127,64.2,127,64.2z"/>
</g>
</svg>
