<?xml version="1.0" encoding="utf-8"?>
<!-- Generator: Adobe Illustrator 19.2.1, SVG Export Plug-In . SVG Version: 6.00 Build 0)  -->
<svg version="1.1" id="Layer_1" xmlns="http://www.w3.org/2000/svg" xmlns:xlink="http://www.w3.org/1999/xlink" x="0px" y="0px"
	 viewBox="0 0 326.4 116.3" style="enable-background:new 0 0 326.4 116.3;" xml:space="preserve">
<style type="text/css">
	.st0{fill:#FFFFFF;}
</style>
<title>rb-logo-square</title>
<g>
	<path class="st0" d="M165,71.9h-11.3l3.9-27.5H168c5.9,0,8.1,2.6,7.6,7.6l-0.1,0.7c-0.4,2-1.6,3.8-3.3,4.9c1.8,0.5,3.1,3,2.7,5.6
		l-0.2,1.3C174,68.8,171.1,71.9,165,71.9z M164.6,66.6c2.2,0,3.7-1,3.9-2.4l0.2-1.4c0.2-1.6-0.4-2.6-1.8-2.6h-5.2l-0.9,6.3
		L164.6,66.6L164.6,66.6z M166.9,55.5c1.2,0,1.6-1.1,2.2-2.8l0.1-0.2c0.1-2.1-0.4-2.8-2.3-2.8H163l-0.8,5.8H166.9L166.9,55.5z"/>
	<path class="st0" d="M190.2,66.3c-2.6,0.4-5.2,0.4-7.8,0l-2.3,5.7h-6.9l13.3-27.5h5.6l5.7,27.5H191L190.2,66.3z M184.4,61.5
		c1.7,0.3,3.4,0.3,5.1,0l-1.2-9.5L184.4,61.5z"/>
	<path class="st0" d="M209.2,62.4c-0.8,0-1.7-0.1-2.5-0.3l-1.4,9.9h-6.2l3.9-27.5h10.4c5.8,0,9,3.5,8.3,8.3l-0.2,1.3
		c-0.5,3.4-2.7,6.2-5.9,7.4l1.9,4.7c0.6,1.7,2.5,1.4,3.7,1.1l-0.7,4.7c-5.2,0.7-7.8,0.3-9.4-4.3L209.2,62.4z M207.5,56.6
		c1.2,0.4,2.5,0.5,3.7,0.5c2.1,0.2,3.9-1.4,4.1-3.5v-0.3c0.2-2-0.7-3.4-2.7-3.4h-4.2L207.5,56.6z"/>
	<path class="st0" d="M225.8,44.4h17l-0.8,5.4h-10.8l-0.8,5.5h8.9l-0.8,5.3h-8.9l-0.8,5.9h11l-0.8,5.4h-17.2L225.8,44.4z"/>
	<path class="st0" d="M244.4,44.4h17l-0.8,5.4h-10.8l-0.9,6.5h9l-0.8,5.4h-9l-1.4,10.2h-6.2L244.4,44.4z"/>
	<path class="st0" d="M261.4,53c0.8-5.7,5.9-9.1,11.6-9.1s9.8,3.5,9,9.1l-1.4,10.3c-0.8,5.7-5.9,9.2-11.6,9.2s-9.8-3.5-9-9.2
		L261.4,53z M266.3,62.9c-0.4,2.7,1.2,4.2,3.5,4.2c2.4,0,4.4-1.8,4.6-4.2l1.3-9.4c0.4-2.8-1.2-4.2-3.4-4.2c-2.4,0-4.5,1.8-4.7,4.2
		L266.3,62.9z"/>
	<path class="st0" d="M284.2,53c0.8-5.7,5.9-9.1,11.6-9.1s9.8,3.5,9,9.1l-1.5,10.3c-0.8,5.7-5.9,9.2-11.6,9.2s-9.8-3.5-9-9.2
		L284.2,53z M289.2,62.9c-0.4,2.7,1.2,4.2,3.5,4.2c2.4,0,4.4-1.8,4.6-4.2l1.3-9.4c0.4-2.8-1.2-4.2-3.4-4.2c-2.4,0-4.5,1.8-4.7,4.2
		L289.2,62.9z"/>
	<path class="st0" d="M312.7,49.8h-6.6l0.8-5.4h19.5l-0.8,5.4H319L315.9,72h-6.2L312.7,49.8z"/>
</g>
<rect class="st0" width="143" height="116.3"/>
<g>
	<path d="M18,35.9h6.1c3.3,0,5.6,1.5,5.6,4.5v14.5c0,2.7-0.8,4.5-4.2,4.8v0.1c2.5,0.2,4.2,1.4,4.2,4.4V85h-2.8V64.3
		c0-1.8-1-3.5-3.7-3.5h-2.5V85H18V35.9z M23.4,58.7c2.3,0,3.6-1.1,3.6-3.3V41c0-2.1-1.2-3.1-3.3-3.1h-3v20.8H23.4L23.4,58.7z"/>
	<path d="M46.3,70.6h-6.7L38.1,85h-2.4l5.5-49.1H45L50.6,85h-2.7L46.3,70.6z M46.1,68.6l-1.7-16.2c-0.6-4.9-1.2-9.9-1.4-14.8h-0.1
		c-0.5,4.9-0.8,9.9-1.3,14.8l-1.8,16.1L46.1,68.6L46.1,68.6z"/>
	<path d="M55.4,40.9c0-3.4,2.2-5.3,5.8-5.3c3.6,0,5.5,1.9,5.5,5.3V49H64v-7.7c0-2-0.6-3.7-2.8-3.7c-1.6-0.1-2.9,1-3.1,2.6
		c0,0.2,0,0.3,0,0.5v39.4c-0.1,1.6,1,2.9,2.6,3.1c0.2,0,0.3,0,0.5,0c2.2,0,2.8-1.2,2.8-3.7v-8.4h2.7v8.8c0,3.4-1.9,5.3-5.5,5.3
		s-5.8-1.9-5.8-5.3L55.4,40.9L55.4,40.9z"/>
	<path d="M72.9,35.9h9.3v2h-6.6v20.8h6.2v2h-6.2v22.2h7.1v2h-9.8V35.9z"/>
	<path d="M121.9,37.4c0.4,0.3,0.8,0.7,1,1.2l0.1,0.3l-0.3-0.2c-0.9-0.5-1.7-1-2.5-1.7c-1-0.9-2-1.9-2.9-3c-1.4-2-3.7-3.2-6.1-3.5
		c-0.2,0-0.5-0.2-0.5-0.4l-0.1-0.2h0.2l3.6,0.5c0.3-0.5,0.5-1.1,0.6-1.6c0-0.4-0.2-0.7-0.5-0.9c-0.6-0.4-1.2-0.7-1.9-1h-0.3l0.3-0.1
		c0.1-0.1,0.3-0.1,0.4-0.1h0.1c0.3,0.1,0.5,0.1,0.8,0.1c0.9,0,1.8-0.5,2.2-1.3c0.5-0.8,0.8-1.7,1.3-2.4c0.2-0.3,0.3-0.6,0.3-0.9
		c-0.2-1.3-1-2.3-2.2-2.8c-0.4-0.2-0.9-0.3-1.3-0.3c-1,0-1.8,0.7-2.1,1.6c-0.6,1.4-1.1,2.8-1.5,4.3c-0.5,1.5-0.9,3-1.4,4.6
		c-0.1,0.3-0.2,0.6-0.4,0.8c-0.1,0.2-0.4,0.3-0.6,0.3c-0.3,0-0.7-0.1-1-0.3c-0.9-0.3-1.9-0.5-2.9-0.5s-1.9,0.1-2.9,0.2
		c-0.3,0.1-0.7,0.1-1,0.1h-0.3h-0.3L100,30c1-0.8,2.3-1.3,3.7-1.2h0.1c0.8,0,1.6,0.1,2.3,0.1h0.3c0.3,0,0.5-0.1,0.7-0.2
		s0.3-0.2,0.4-0.3c0.9-2.3,1.6-4.6,2.2-6.9c0.1-0.5,0.2-0.9,0.2-1.4c0-2.4-1.6-4.4-3.9-4.9c-0.5-0.1-0.9-0.2-1.4-0.2
		c-1.5,0-3,0.7-3.9,1.9C98.6,19.2,98.1,22,98,25v0.1c0,0.6,0.5,1.1,1.1,1.2l1.8,0.4h0.1v0.1l0.2,0.4l0.1,0.2H101
		c-0.3-0.1-0.6-0.1-0.9-0.1c-0.6-0.1-1.2,0.3-1.5,0.8c-0.3,0.6-0.5,1.3-0.6,2c-0.4,1.9-1,3.8-1.9,5.6c-1.1,2-1.6,4.3-1.7,6.6
		c0,0.9,0.1,1.8,0.3,2.7c1.2,5.9,1.8,11.9,1.8,17.9c0,0.6,0,1.2,0,1.8c-0.2,6.6-1,13.1-2.3,19.5c-0.6,2.4-0.9,4.8-1,7.2
		c0,0.8,0.1,1.6,0.2,2.4c0.6,3.8,2.2,6.9,6,8.3c0.9,0.3,1.9,0.5,2.9,0.5c2.1-0.1,4.1-0.7,5.7-1.9c3.7-2.4,6-6.1,7.7-10.1
		c2.5-5.8,4.9-11.7,7.3-17.5c2-4.7,4.1-9.4,5.9-14.2c0.8-2,1.2-4.1,1.2-6.3c0-1.7-0.3-3.4-0.9-5l0,0c0-0.1-0.1-0.3-0.1-0.4
		c0-0.3,0.1-0.6,0.1-0.9c0.1-1.6,0.2-3.2,0.2-4.8c0-0.3,0-0.7,0-1c0.1-1.1-0.7-2.1-1.7-2.4c-0.2-0.1-0.4-0.1-0.6-0.1
		c-0.6,0-1.2,0.3-1.6,0.8c-0.3,0.4-0.5,0.9-0.5,1.4s0.2,1.1,0.4,1.5c0.6,1.2,1.3,2.2,2,3.4l0.2,0.4l-0.4-0.2
		c-0.9-0.6-1.7-1.3-2.3-2.2c-0.7-0.8-1.1-1.8-1.4-2.8c0-0.1,0-0.2,0-0.3c0.1-1.1,0.7-2.2,1.6-2.8c0.4-0.3,0.7-0.7,0.8-1.2
		c0.1-0.7,0.1-1.4,0.1-2.1c0-0.6,0-1.3-0.2-1.9c-0.2-1.4-1.3-2.4-2.7-2.4h-0.4c-1.5,0.4-2.6,1.7-2.7,3.3V33c0,1.6,1.2,2.9,2.8,3
		c0.6,0.1,1.1,0.1,1.7,0.2h0.3l-0.2,0.2c-0.3,0.4-0.7,0.6-1.2,0.5c-0.9-0.1-1.7-0.2-2.6-0.4C121.3,36.7,121.6,37.1,121.9,37.4z"/>
	<path d="M116.2,31.4c1.2,1.3,2.4,2.6,3.6,3.8l0.1,0.1c0-0.1,0-0.1,0-0.2c-0.6-0.9-0.9-1.9-0.9-2.9c0.1-1.6,0.9-3,2.3-3.8
		c0.6-0.3,1-0.9,1.1-1.5c0-0.5-0.2-0.9-0.4-1.3c-0.4-0.8-1.3-1.4-2.2-1.5c-0.3,0-0.6,0.1-0.8,0.2c-1.6,0.8-2.6,2.3-2.7,4.1
		c0,0.7,0.2,1.4,0.7,2c0.1,0.1,0.2,0.3,0.2,0.5V31l-0.1,0.1l-0.2,0.2l-0.1-0.1l-1-0.7l0,0C115.9,30.9,116,31.2,116.2,31.4z"/>
</g>
</svg>
